<?xml version="1.0" encoding="utf-8"?>
<!-- Generator: Adobe Illustrator 16.0.0, SVG Export Plug-In . SVG Version: 6.00 Build 0)  -->
<!DOCTYPE svg PUBLIC "-//W3C//DTD SVG 1.1//EN" "http://www.w3.org/Graphics/SVG/1.1/DTD/svg11.dtd">
<svg version="1.1" id="Layer_1" xmlns="http://www.w3.org/2000/svg" xmlns:xlink="http://www.w3.org/1999/xlink" x="0px" y="0px"
	 width="56px" height="18.667px" viewBox="0 0 56 18.667" enable-background="new 0 0 56 18.667" xml:space="preserve">
<g>
	<path d="M12.463,14.824c0,0.061,0,0.119-0.02,0.18v0.021v0.021v0.039c0,0.021-0.02,0.062-0.02,0.08
		c-0.06,0.26-0.16,0.461-0.28,0.66c-0.12,0.201-0.24,0.359-0.38,0.541c-0.28,0.32-0.6,0.6-0.94,0.84
		c-0.34,0.24-0.7,0.459-1.08,0.601c-0.42,0.159-0.82,0.26-1.22,0.26c-0.22,0.021-0.42,0-0.62-0.039c-0.2-0.041-0.42-0.101-0.58-0.2
		c-0.2-0.08-0.36-0.181-0.54-0.32c-0.18-0.119-0.3-0.279-0.44-0.439c-0.06-0.061-0.04-0.02,0.02,0.041
		c0.04,0.039,0.08,0.08,0.08,0.1c0.02,0.039,0.04,0.062,0.04,0.08c-0.04-0.08-0.2-0.24-0.32-0.399c-0.12-0.16-0.2-0.32-0.26-0.4
		c0.1,0.201,0.26,0.421,0.42,0.621c0.16,0.199,0.36,0.358,0.54,0.5c-0.18-0.121-0.34-0.26-0.48-0.44
		c-0.16-0.16-0.32-0.359-0.44-0.601c-0.14-0.239-0.28-0.5-0.4-0.819c-0.04-0.08-0.06-0.16-0.08-0.24
		c-0.02-0.039-0.04-0.08-0.06-0.119c0-0.02-0.02-0.041-0.02-0.061c0-0.021,0-0.021-0.02-0.039v-0.021l0.02-0.02
		c-0.02-0.021-0.02-0.039-0.02-0.08c-0.02-0.021-0.02-0.039-0.02-0.062c-0.02-0.039-0.02-0.101-0.02-0.14
		c-0.02-0.061-0.04-0.1-0.04-0.159c-0.02-0.041-0.02-0.101-0.04-0.142c0.02,0.041,0.02,0.121,0.04,0.181
		c0,0.041,0.02,0.079,0.02,0.12c0.02,0.021,0.02,0.039,0.02,0.06s0,0.041,0,0.062c0,0.02,0,0.041,0.02,0.061
		c0,0.02,0,0.061,0.02,0.08v0.02l-0.02,0.021c0.02,0.021,0.02,0.021,0.02,0.041s0.02,0.039,0.02,0.062
		c0.02,0.039,0.04,0.08,0.04,0.139c0.02,0.041,0.04,0.08,0.06,0.141c0.02,0.1,0.06,0.18,0.08,0.279c0.02,0.041,0.06,0.08,0.08,0.141
		c0.02,0.041,0.04,0.08,0.04,0.119c0.02,0.061,0.04,0.102,0.08,0.141c0,0.021,0.02,0.041,0.02,0.062
		c0.02,0.021,0.04,0.039,0.04,0.062c0.02,0.039,0.04,0.08,0.06,0.118c0.02,0.021,0.02,0.062,0.04,0.101
		c0.02,0.041,0.02,0.041-0.02,0.021c0-0.021-0.02-0.041-0.04-0.062c-0.02-0.02,0-0.041,0-0.041c0-0.02-0.02-0.039-0.02-0.059
		c-0.06-0.061-0.1-0.141-0.16-0.201c-0.02-0.061-0.06-0.119-0.08-0.16c-0.02-0.059-0.06-0.1-0.08-0.16
		c-0.04-0.059-0.02-0.118-0.04-0.18c-0.04-0.039-0.06-0.1-0.08-0.16c-0.02-0.02-0.02-0.061-0.04-0.08c0-0.02-0.02-0.039-0.02-0.039
		l-0.02-0.041c-0.02-0.059-0.02-0.1-0.04-0.159v-0.039l-0.02-0.021V15.27l0.02-0.021c-0.02-0.02-0.02-0.061-0.04-0.08
		c-0.02-0.119-0.06-0.221-0.08-0.319c-0.06-0.438-0.12-0.841-0.14-1.261c-0.02-0.561-0.02-1.2,0.06-1.881
		c0.02-0.438,0.1-0.879,0.18-1.299c0,0,0,0-0.02,0c-0.22,0.078-0.46,0.158-0.72,0.18c-0.26,0.039-0.5,0.06-0.76,0.06h-0.08
		c-0.04,0-0.08,0-0.12,0c-0.04-0.021-0.08-0.021-0.08-0.021l-0.1-0.02h-0.04h-0.04h-0.02l-0.06-0.02c-0.04,0-0.08-0.021-0.1-0.021
		h-0.08l-0.12-0.02l-0.02-0.021l-0.06-0.021h-0.02c0,0.06-0.02,0.119-0.02,0.199c0,0.26,0.04,0.521,0.06,0.76l0.04,0.201l0.06,0.199
		v0.1l0.04,0.103l0.06,0.199c0.06,0.26,0.14,0.521,0.2,0.778c0.08,0.281,0.16,0.541,0.26,0.802c0.08,0.26,0.18,0.521,0.24,0.78
		c0.06,0.14,0.12,0.279,0.16,0.42c0.04,0.14,0.06,0.279,0.1,0.459c0.04,0.16,0.06,0.32,0.04,0.521c-0.02,0.18-0.04,0.359-0.1,0.539
		l-0.02,0.02l-0.04,0.041v0.062c-0.02,0.039-0.04,0.08-0.06,0.119l-0.02,0.039l-0.04,0.062l-0.02,0.061
		c-0.02,0.02-0.02,0.02-0.02,0.039l-0.02,0.021l-0.04,0.08c-0.02,0.039,0,0.021-0.02,0.021v0.02l-0.02,0.02c0,0,0,0-0.02,0.021
		c0,0.02-0.02,0.039-0.04,0.059c-0.08,0.062-0.12,0.121-0.18,0.183c-0.12,0.118-0.28,0.219-0.42,0.278
		c-0.04,0.021-0.08,0.039-0.1,0.062l-0.06,0.021c-0.02,0.02-0.04,0.02-0.06,0.02l-0.06,0.02l-0.06,0.021l-0.06,0.02h-0.06
		l-0.04,0.021h-0.02h-0.02h-0.02c-0.04,0.021-0.08,0.021-0.12,0.021c-0.08,0-0.16,0-0.22,0c-0.16,0-0.32-0.021-0.46-0.06
		c-0.14-0.041-0.3-0.103-0.46-0.183c-0.12-0.08-0.26-0.18-0.38-0.278c-0.08-0.119-0.18-0.261-0.26-0.381
		c-0.1-0.14-0.16-0.279-0.22-0.421c-0.06-0.139-0.1-0.299-0.14-0.438l-0.04-0.118l-0.02-0.041v-0.062l-0.02-0.119
		c-0.02-0.041-0.02-0.062-0.02-0.101l-0.02-0.061v-0.02c0-0.021,0,0,0-0.021v-0.02l-0.02-0.119c0-0.02,0-0.061-0.02-0.1
		c0-0.041,0-0.08,0.02-0.121C0,15.164,0,15.103,0,15.023l-0.02-0.119v-0.1c0-0.301,0-0.58,0.02-0.881
		c0.02-0.279,0.04-0.562,0.1-0.84c0.02-0.301,0.06-0.58,0.1-0.84c0.06-0.281,0.12-0.562,0.16-0.841c0.08-0.28,0.14-0.541,0.2-0.819
		c0.14-0.521,0.28-1.042,0.46-1.562c0.2-0.521,0.38-1.04,0.6-1.54c0.22-0.48,0.46-0.96,0.7-1.44c0.04-0.061,0.06-0.12,0.12-0.16
		c0.02-0.06,0.06-0.12,0.08-0.18c0.04-0.061,0.08-0.12,0.12-0.16c0.02-0.061,0.04-0.12,0.08-0.181c0.08-0.1,0.16-0.22,0.22-0.319
		c0.04-0.061,0.08-0.12,0.12-0.181c0.02-0.04,0.06-0.1,0.1-0.16c0.04-0.04,0.08-0.1,0.14-0.14c0.02-0.06,0.06-0.12,0.1-0.16
		l0.08-0.08c0-0.02,0.02-0.06,0.04-0.08c0.04-0.04,0.08-0.1,0.12-0.14C3.68,4.04,3.72,4,3.76,3.941c0.06-0.04,0.1-0.1,0.14-0.14
		C3.94,3.74,3.98,3.7,4.02,3.66L4.1,3.58c0-0.02,0.02-0.04,0.04-0.06C4.5,3.14,4.86,2.799,5.26,2.499c0.52-0.42,1.12-0.78,1.76-1.04
		c0.3-0.14,0.66-0.26,0.98-0.34c0.08-0.021,0.18-0.04,0.26-0.061c0.02,0,0.08-0.02,0.12-0.02l0.12-0.04l0.14-0.021h0.04
		c0.04,0,0.06-0.02,0.08-0.02l0.26-0.021c0.04-0.02,0.08-0.02,0.12-0.02L9.263,0.9h0.14c0.06,0,0.08,0,0.12,0l0.14-0.02h0.04h0.04
		h0.02h0.02c0.04,0,0.06,0,0.08,0s0.04,0,0.08,0.02c0.04,0,0.1,0,0.14,0.021c0.18,0.02,0.36,0.08,0.561,0.18
		c0.08,0.061,0.18,0.12,0.24,0.181c0.1,0.08,0.16,0.159,0.22,0.26l0.06,0.06c0.02,0.04,0.04,0.061,0.04,0.08l0.02,0.04l0.02,0.04
		c0,0.04,0.02,0.061,0.04,0.08v0.08c0.02,0.021,0.02,0.04,0.02,0.04l0.02,0.04l0.02,0.1c0,0.021,0,0.04,0.021,0.08
		c0.02,0.101,0.02,0.221,0.02,0.32c0,0.021,0,0.061,0,0.08l-0.02,0.101v0.02c0,0,0,0,0,0.021v0.02l-0.021,0.06
		c0,0.12-0.02,0.221-0.06,0.32c-0.02,0.101-0.08,0.181-0.1,0.28c-0.04,0.18-0.12,0.34-0.2,0.5c-0.16,0.38-0.36,0.74-0.54,1.08
		c-0.2,0.34-0.38,0.66-0.6,0.98c-0.36,0.6-0.78,1.141-1.18,1.601c0.04,0.6,0.02,1.12,0,1.58c-0.02,0.24-0.04,0.48-0.06,0.722
		c-0.02,0.061-0.02,0.118-0.02,0.18c-0.02,0.061-0.02,0.121-0.02,0.18c-0.02,0.061-0.02,0.102-0.02,0.16
		c0,0.041-0.02,0.061-0.02,0.1v0.041v0.02l-0.02,0.021c-0.04,0.08-0.06,0.201-0.06,0.302c-0.02,0.1-0.04,0.198-0.04,0.319
		c-0.04,0.199-0.04,0.42-0.04,0.619c-0.021,0.121-0.021,0.239-0.021,0.319c0.021,0.08,0.021,0.142,0.04,0.201
		c0,0.139,0.02,0.24,0.04,0.4c0.02,0.1,0.02,0.059,0,0.02c-0.02-0.041-0.04-0.1-0.02-0.1c0.02,0.139,0.06,0.279,0.1,0.398
		c0.02,0.141,0.06,0.24,0.1,0.342c0.1,0.199,0.2,0.299,0.22,0.34c-0.02,0-0.04-0.021-0.06-0.041c0-0.02-0.02-0.039-0.04-0.039
		c0-0.021-0.02-0.041-0.02-0.041c-0.02-0.02-0.02-0.039-0.02-0.039c0-0.02-0.02-0.041-0.02-0.041c-0.02-0.02-0.02-0.039-0.04-0.059
		c-0.02-0.021-0.02-0.041-0.04-0.061c-0.02-0.041-0.02-0.062-0.04-0.101c-0.02-0.021-0.02-0.021-0.02,0.021
		c0.02,0,0.02,0.039,0.04,0.061c0,0.02,0.02,0.039,0.04,0.08c0.02,0.02,0.04,0.059,0.06,0.08c0.02,0.02,0.02,0.059,0.02,0.078
		c0.02,0.021,0.04,0.041,0.04,0.061c0.02,0,0.02,0.02,0.02,0.02c-0.06-0.059-0.1-0.139-0.16-0.219c-0.04-0.1-0.1-0.221-0.14-0.361
		c0.06,0.121,0.06,0.222,0.12,0.32c0.02,0.041,0.04,0.061,0.06,0.102c0.02,0.021,0.02,0.039,0.04,0.06
		c0,0.021,0.02,0.021,0.02,0.041s0.02,0.039,0.02,0.06c0.02,0,0.04,0.021,0.04,0.041c0.02,0,0.02,0.02,0.02,0.02
		c0.02,0.02,0.02,0.02,0.02,0.02c0.02,0.021,0.04,0.041,0.06,0.062c0.06,0.062,0.12,0.142,0.24,0.2c0,0.021,0,0-0.02,0
		c0-0.021-0.02-0.021-0.04-0.041c-0.02,0-0.04-0.02-0.06-0.02c0.02,0,0.04,0.02,0.06,0.039c0.02,0,0.02,0,0.04,0.021
		c0,0,0.02,0.02,0.04,0.02c0.06,0.039,0.16,0.061,0.24,0.1c-0.1-0.039-0.1-0.02-0.04,0c0.02,0,0.02,0.021,0.04,0.021
		c0.021,0,0.021,0,0.04,0c0.02,0.021,0.06,0.021,0.06,0.021c0.04,0.021,0.06,0.021,0.1,0.021c0.02,0,0.06,0.021,0.08,0.021
		c0,0-0.02,0-0.04,0c0,0-0.02,0-0.04-0.021c0,0-0.02,0-0.04,0s-0.04,0-0.04,0c-0.02,0-0.02-0.021-0.04-0.021s-0.06,0-0.08-0.021
		c0,0.021,0.1,0.041,0.2,0.062c0.06,0,0.1,0,0.16,0c0.04,0,0.06,0.02,0.06,0.02c0.08,0,0.08,0,0.06,0c0,0-0.02,0-0.04,0.02
		c-0.02,0-0.04,0-0.08,0c-0.02,0-0.04,0-0.06,0c0,0,0,0-0.02,0c-0.04,0-0.08,0-0.12-0.02c-0.02,0-0.04,0-0.06,0c0,0,0,0-0.02,0
		c-0.04-0.02-0.08-0.02-0.1-0.02c0.02,0,0.04,0,0.06,0.02c0.02,0,0.04,0,0.06,0.02c0.02,0,0.04,0,0.08,0c0.02,0,0.06,0,0.08,0.021
		c0.08,0,0.2,0,0.24,0c0.021,0,0.021,0,0,0c0.32,0,0.68-0.08,1.08-0.24c0,0,1.561-0.721,1.3,1c-0.28,1.721-5.081,5.201-6.602,0.1
		c0,0-0.52-1.801,0.02-4.739c0,0.039-0.02,0.101-0.02,0.139c-0.04,0.103-0.06,0.222-0.08,0.343c-0.02,0.139-0.04,0.278-0.08,0.438
		c-0.02,0.301-0.06,0.66-0.06,1c0,0.039,0,0.08,0,0.119c0,0.062,0,0.103-0.02,0.141c0,0.08,0,0.16,0,0.24c0,0.021,0,0.041,0,0.062
		c0,0.02,0,0.039,0,0.061c0,0.039,0,0.078,0,0.119c0,0.08,0,0.16-0.02,0.221c0,0.059,0.02,0.139,0.02,0.24c0,0.039,0,0.1,0,0.158
		c0.02,0.061,0.02,0.102,0.02,0.182c0,0.24,0.06,0.52,0.08,0.799c0.02,0.041,0.02,0.08,0.02,0.102c0.02,0.039,0.02,0.08,0.02,0.119
		c0,0.021,0.02,0.062,0.02,0.101c0,0.021,0.02,0.062,0.02,0.101c0.02,0.02,0.02,0.04,0.02,0.04v0.021l0.02,0.02v0.021
		c0.02,0.039,0,0.059,0.02,0.1c0,0.02,0.02,0.061,0.02,0.08c0.02,0.039,0.04,0.061,0.04,0.1c0.02,0.041,0.04,0.101,0.06,0.16
		c0.02,0.039,0.04,0.1,0.06,0.141c0,0.021,0.02,0.039,0.02,0.06c0.02,0.021,0.02,0.041,0.04,0.062c0,0.041,0,0.08,0,0.1
		c0-0.039-0.02-0.08-0.04-0.139c-0.02-0.041-0.06-0.103-0.1-0.183c0-0.021-0.02-0.021-0.02-0.038c0-0.02,0-0.041,0-0.062
		c-0.02-0.039-0.04-0.101-0.06-0.14c-0.02-0.061-0.04-0.102-0.08-0.16c0-0.021,0-0.061,0-0.08c-0.02-0.041-0.02-0.061-0.04-0.102
		c0,0.021,0.02,0.041,0.02,0.061v0.021h0.02c0,0.021,0,0.021,0,0.021c0,0.021,0,0.021,0.02,0.039c-0.02,0.041,0,0.101,0.02,0.16
		c0.02,0.041,0.06,0.101,0.08,0.16c0,0.021,0.02,0.039,0.02,0.08c0,0.02,0.02,0.039,0.02,0.08c0.08,0.199,0.18,0.4,0.24,0.5
		c0.02,0.039,0.06,0.08,0.08,0.141c0.02,0.06,0.06,0.119,0.1,0.181c0.02,0.021,0.02,0.021,0.04,0.039
		c-0.02,0.021,0,0.041,0.02,0.062c0.02,0.02,0.04,0.061,0.06,0.1c0.02,0.021,0.04,0.061,0.08,0.1c0.02,0.021,0.02,0.041,0.04,0.041
		c0.02,0.02,0.04,0.039,0.04,0.061l0.04,0.039c0.02,0.021,0.02,0.041,0.04,0.062c0.04,0.039,0.08,0.062,0.1,0.101
		c0.02,0.02,0.06,0.061,0.08,0.08c0.02,0.018,0.04,0.02,0.04,0.04c0.02,0.021,0.04,0.021,0.04,0.039
		c0.12,0.101,0.24,0.181,0.32,0.24c0.12,0.062,0.24,0.119,0.34,0.181c0.06,0.02,0.14,0.04,0.18,0.061c0.04,0.02,0.06,0.02,0.1,0.039
		c0.04,0,0.08,0.021,0.08,0.021c0.04,0,0.08,0.021,0.1,0.021c0.04,0,0.08,0.02,0.1,0.02c0.06,0.02,0.12,0.02,0.2,0.02
		c0.1,0.021,0.2,0.021,0.34,0.021c0.24,0,0.5-0.041,0.74-0.102c0.24-0.06,0.48-0.16,0.68-0.26c0,0.02-0.06,0.041-0.14,0.08
		c-0.04,0.02-0.06,0.02-0.1,0.041c-0.06,0.02-0.1,0.039-0.14,0.059c-0.04,0-0.08,0.021-0.12,0.041c-0.04,0-0.08,0.02-0.1,0.02
		c-0.06,0.02-0.1,0.041-0.1,0.041c0.06-0.021,0.1-0.041,0.18-0.061c0.04,0,0.08-0.021,0.12-0.021c0.02-0.021,0.06-0.04,0.12-0.061
		c0.14-0.041,0.3-0.121,0.46-0.201c0.28-0.14,0.56-0.317,0.66-0.379c-0.08,0.062-0.22,0.141-0.32,0.198
		c-0.12,0.08-0.22,0.142-0.34,0.222c0.1-0.062,0.26-0.142,0.42-0.261c0.2-0.1,0.4-0.239,0.56-0.399
		c0.02-0.021,0.04-0.041,0.06-0.062l0.08-0.059c0.04-0.041,0.08-0.08,0.12-0.121c0.1-0.08,0.18-0.16,0.26-0.24s0.14-0.16,0.2-0.239
		c0.08-0.08,0.12-0.16,0.16-0.24c-0.24,0.381-0.58,0.74-0.94,1.041c-0.18,0.142-0.4,0.301-0.62,0.42c-0.1,0.062-0.2,0.119-0.3,0.181
		c-0.04,0.02-0.08,0.041-0.1,0.041l-0.04,0.02l-0.04,0.02c-0.02,0.021-0.06,0.041-0.1,0.041c-0.02,0.021-0.06,0.039-0.08,0.039
		c-0.22,0.1-0.48,0.18-0.76,0.24c-0.26,0.041-0.52,0.061-0.8,0.041c-0.04,0-0.12-0.021-0.2-0.021c-0.04,0-0.06-0.02-0.08-0.02
		s-0.04,0-0.06,0l-0.06-0.02c-0.12-0.021-0.24-0.08-0.38-0.121c-0.02-0.021-0.04-0.039-0.08-0.039c-0.04-0.021-0.08-0.041-0.1-0.061
		l-0.04-0.021c-0.02,0-0.04-0.021-0.06-0.021l-0.1-0.061l-0.08-0.061l-0.04-0.021l-0.06-0.041l-0.06-0.06l-0.1-0.061l-0.04-0.039
		l-0.06-0.041l-0.04-0.08c-0.02-0.02-0.06-0.039-0.08-0.08c-0.04-0.02-0.04-0.039-0.06-0.08c-0.06-0.061-0.12-0.1-0.16-0.16
		l-0.06-0.1l-0.08-0.08c-0.14-0.24-0.28-0.52-0.42-0.779c0-0.041,0-0.08,0-0.102l-0.06-0.119c-0.02-0.02-0.04-0.061-0.04-0.1
		l-0.06-0.1l-0.02-0.062c0-0.021,0-0.041-0.02-0.041l-0.02-0.119l-0.02-0.041l0.02-0.039l-0.02-0.021l-0.02-0.061
		c0-0.02,0-0.041,0-0.061c-0.1-0.299-0.1-0.6-0.16-0.9c-0.06-0.6-0.06-1.199-0.04-1.779c0-0.141,0-0.301,0.02-0.44
		s0.04-0.3,0.04-0.438c0-0.039,0-0.08,0.02-0.101c0-0.041,0-0.08,0-0.121c0.04-0.06,0.04-0.14,0.04-0.198
		c0.02-0.08,0.02-0.16,0.04-0.222c0-0.08,0.02-0.14,0.02-0.22c0,0.039-0.02,0.119-0.04,0.199s-0.02,0.181-0.04,0.301
		c-0.06,0.22-0.06,0.521-0.1,0.841c0,0.079-0.02,0.159-0.02,0.239c0,0.039,0,0.101,0,0.14c0,0.021,0,0.041,0,0.062
		c0,0.02,0,0.041,0,0.061c-0.02,0.1-0.02,0.18-0.02,0.26c0,0.041,0,0.1,0,0.141c0.02,0.039,0.02,0.08,0.02,0.119
		c0,0.1,0,0.18-0.02,0.281c0.02,0.08,0.02,0.16,0.02,0.26c0.02,0.039,0.02,0.08,0.02,0.119c0,0.041,0,0.08,0.02,0.141
		c0,0.08-0.02,0.16,0,0.24c0,0.08,0.02,0.18,0.04,0.299c0.02,0.103,0.02,0.24,0.02,0.381c0.02,0.08,0.04,0.142,0.06,0.222
		c0,0.039,0.02,0.08,0.02,0.119c0,0.021,0.02,0.062,0.02,0.079c0,0.02,0.02,0.041,0.02,0.062v0.021h0.02l-0.02,0.02v0.021
		c0.02,0.02,0.02,0.039,0.04,0.059c0,0.041,0.02,0.08,0.02,0.141c0.02,0.041,0.04,0.08,0.06,0.119c0.02,0.041,0.02,0.102,0.06,0.141
		c0.04,0.08,0.06,0.181,0.08,0.261c0.02,0.041,0.04,0.103,0.08,0.142c0.02,0.039,0.04,0.08,0.08,0.141
		c0.08,0.18,0.18,0.359,0.3,0.539c0.12,0.16,0.28,0.32,0.42,0.479c0.16,0.142,0.32,0.279,0.52,0.382l0.06,0.039l0.02,0.02h0.02
		c0.02,0.021,0.06,0.041,0.1,0.061c0.08,0.041,0.16,0.061,0.24,0.1c0.12,0.041,0.28,0.08,0.44,0.103c0.32,0.06,0.64,0.06,0.96,0
		c0.18-0.041,0.32-0.062,0.5-0.121c0.14-0.039,0.3-0.101,0.46-0.18c0.14-0.062,0.28-0.142,0.42-0.222c0.14-0.08,0.28-0.16,0.42-0.26
		c0.28-0.18,0.521-0.381,0.74-0.619c0.26-0.221,0.46-0.479,0.64-0.74c0.06-0.141,0.14-0.28,0.2-0.44l0.02-0.039V15.38
		c0-0.021,0-0.041,0-0.061c0.02-0.02,0.02-0.041,0.04-0.061c0-0.02,0.02-0.039,0.02-0.061c0-0.021,0-0.039,0-0.06l0.02-0.021v-0.021
		v-0.021v-0.041v-0.02c0-0.02,0-0.039,0-0.061c0.02-0.078,0.02-0.158,0.02-0.238s0-0.16,0-0.221c-0.02-0.08-0.04-0.16-0.06-0.24
		s-0.06-0.16-0.12-0.221c-0.06-0.08-0.08-0.14-0.16-0.181c-0.08-0.039-0.14-0.08-0.22-0.101c-0.14-0.041-0.26-0.061-0.4-0.041
		c-0.12,0-0.26,0.041-0.34,0.062c-0.06,0.021-0.1,0.021-0.14,0.041c-0.02,0-0.06,0.021-0.08,0.021l-0.02,0.02c-0.02,0-0.02,0-0.02,0
		c-0.02,0-0.02,0-0.02,0.02l0.02-0.02h0.02l0.04-0.02c0.02,0,0.04-0.021,0.08-0.021c0.02-0.021,0.08-0.041,0.12-0.062
		c0.08-0.02,0.2-0.041,0.28-0.061c0.12,0,0.22,0,0.34,0c0.1,0.02,0.22,0.061,0.32,0.121c0.06,0.039,0.12,0.08,0.14,0.139
		c0.04,0.041,0.1,0.103,0.12,0.16c0.04,0.061,0.06,0.121,0.08,0.18c0.02,0.062,0.02,0.121,0.04,0.201
		C12.463,14.603,12.463,14.705,12.463,14.824z M2.201,6.942c0.02-0.04,0.04-0.101,0.06-0.16c0.04-0.061,0.06-0.12,0.1-0.16
		c0.04-0.061,0.08-0.12,0.08-0.16c0.02-0.04,0.04-0.08,0.06-0.12c0,0,0.02,0,0.04-0.06c0,0-0.04,0.06-0.08,0.14
		c-0.02,0.061-0.08,0.16-0.14,0.26c-0.04,0.061-0.06,0.12-0.08,0.16c-0.02,0.061-0.04,0.12-0.08,0.16c-0.04,0.12-0.1,0.2-0.14,0.28
		c0,0.04,0,0,0.04-0.061C2.101,7.162,2.141,7.063,2.201,6.942z M4.562,7.763c0,0,0,0.02,0,0.04s0,0.04,0,0.06c-0.02,0-0.02,0-0.02,0
		C4.562,7.862,4.542,7.803,4.562,7.763z M4.961,8.423c0.04,0.079,0.1,0.14,0.16,0.159c0,0.04,0.06,0.04,0.12,0.061
		c0.06,0,0.1,0,0.16,0c0.04-0.021,0.06-0.021,0.1-0.021c0,0,0.02,0,0.04,0s0.04-0.02,0.04-0.02c0.02,0,0.06-0.021,0.06-0.021
		c0.02,0,0.02,0,0.04-0.02c0.02,0,0,0.02,0,0.02c0.02,0,0.04-0.02,0.04-0.02c0.04-0.021,0.04-0.021,0.06,0
		c-0.021,0.02-0.021,0-0.04,0.02c-0.02,0.021,0.04,0,0.06,0c-0.04,0.021-0.06,0.021-0.08,0.04c0.04-0.02,0.06,0,0.14-0.04
		c-0.02,0.021-0.02,0.021-0.04,0.021c0.02,0,0.02,0,0.06-0.021c-0.04,0.021,0,0.021,0.04,0c-0.02,0.021-0.04,0.021-0.04,0.021h0.02
		c0.02-0.021,0.02-0.021,0.02-0.021c0.04,0-0.02,0.04-0.02,0.061h0.02c0-0.021,0.02-0.021,0.02-0.021c0.04-0.02,0.08-0.04,0.12-0.08
		c0.12-0.779,0.06-1.28-0.06-1.56v0.02c0,0.021,0.02,0.04,0.02,0.08c0.02,0.04,0.04,0.12,0.06,0.16c-0.02,0.02-0.02,0.08,0,0.14
		c0,0.021,0,0.04,0,0.08c0,0.021,0,0.04-0.02,0.04c0-0.02-0.02-0.04-0.02-0.08c0,0.021,0,0.04,0,0.061c0,0.02,0,0.04,0.02,0.04
		c-0.02,0.02-0.02,0.02-0.02,0.04s0,0.04,0,0.04c0,0.04,0,0.08,0.02,0.1c-0.02,0.101-0.02,0.2-0.06,0.28c0,0,0.02-0.061,0-0.061
		c0,0.021,0,0.04-0.02,0.08c0,0.04,0,0.061-0.02,0.08c0-0.02,0-0.06,0-0.08c0,0.04-0.02,0.16-0.02,0.221
		c0-0.16,0.02-0.36,0.02-0.561c-0.02-0.1-0.02-0.2-0.02-0.3c-0.02-0.101-0.04-0.2-0.06-0.26c-0.02,0-0.02,0.02-0.02,0.04
		c0.02,0.02,0.02,0.04,0.04,0.06c0.02,0.04,0.02,0.1,0.02,0.14s0,0.08,0,0.16c0.02,0.061,0.02,0.141,0.02,0.2
		c0,0.12-0.02,0.24-0.02,0.36c-0.02,0.12-0.02,0.24-0.04,0.32c-0.02,0.06-0.02,0.1-0.04,0.119c0.02-0.14,0.04-0.279,0.04-0.439
		c0.02-0.141,0.04-0.3,0.04-0.44c-0.02-0.02-0.02,0.021-0.02,0.021c-0.02-0.021,0-0.061-0.02-0.08c0,0.02,0,0.04,0,0.06
		c0.02,0.021,0.02,0.04,0.02,0.061c-0.02-0.061-0.04-0.141-0.06-0.261c0,0.021,0,0.12-0.02,0.16c-0.02,0.021-0.04-0.02-0.08-0.04
		c0-0.08,0-0.12-0.02-0.18c-0.02-0.04-0.02-0.08-0.02-0.12c-0.02-0.04-0.04-0.08-0.06-0.1c-0.02-0.021-0.02-0.04-0.04-0.04
		c0-0.021-0.02-0.021-0.04-0.021c0-0.02-0.06-0.02-0.12,0c-0.06,0.021-0.12,0.04-0.2,0.08c-0.06,0.04-0.14,0.1-0.2,0.16
		s-0.08,0.14-0.12,0.2c-0.02,0.04-0.04,0.06-0.06,0.1v0.021c0,0,0,0,0,0.02l-0.02,0.021v0.02c0,0,0-0.02,0,0
		c-0.02,0.18-0.02,0.34,0.02,0.48C4.902,8.282,4.941,8.362,4.961,8.423z M5.322,8.923h-0.02c0,0,0,0-0.02,0c-0.02,0-0.04,0-0.06,0
		c-0.06,0-0.1,0-0.12-0.021C5.162,8.923,5.262,8.923,5.322,8.923z M5.442,8.902c0.02,0,0.02,0,0.04,0c0-0.02,0.02-0.02,0.02-0.02
		c0.02,0,0.04,0,0.04-0.021c0.02,0,0.04-0.02,0.06-0.02c-0.06,0.02-0.1,0.02-0.12,0.04C5.482,8.902,5.462,8.902,5.442,8.902
		s-0.04,0-0.06,0.021C5.402,8.902,5.422,8.902,5.442,8.902z M5.582,4.562c0.16-0.04,0.32-0.06,0.48-0.08c0.1,0,0.2-0.02,0.3-0.02
		c0.02,0,0.02,0,0.04,0s0.02,0,0.02,0c0.02,0,0.06,0,0.08,0c0.06,0.02,0.1,0.02,0.14,0.02c0.18,0.021,0.36,0.08,0.46,0.141
		c0.14,0.079,0.28,0.18,0.4,0.279c0.04,0.021,0.06,0.04,0.08,0.061c0,0.02,0.02,0.02,0.04,0.06c0.02,0.021-0.02-0.02-0.02,0
		c0.08,0.061,0.16,0.16,0.16,0.181c-0.04-0.021-0.04-0.04-0.08-0.061c-0.04-0.02,0.06,0.061,0.04,0.08c-0.02-0.02-0.04-0.06-0.1-0.1
		c0.04,0.04,0.06,0.08,0.08,0.1c0.02,0.021,0,0.061,0.04,0.1c0,0,0,0-0.02-0.02c0,0.02,0.02,0.04,0.04,0.06c0,0,0,0,0,0.021
		c0,0,0,0,0,0.02v-0.02c-0.02,0-0.02,0.02,0,0.02c-0.02,0-0.02,0.021-0.02,0.04c-0.02,0-0.02-0.02-0.02-0.02c0,0.02,0,0.02,0,0.02
		c0,0.021,0,0.021,0,0.021h0.02c0.02,0.02,0.02,0.04,0.02,0.04c0.02,0.06,0.06,0.12,0.1,0.16c0.6-1.181,0.36-2.101-0.18-2.421
		c-0.04-0.02-0.04-0.04-0.08-0.04c0.02,0.021,0.06,0.04,0.1,0.08s0.1,0.061,0.12,0.1c0.04,0.04,0.08,0.08,0.12,0.101
		c0.02,0.04,0.06,0.12,0.08,0.2c0.06,0.08,0.08,0.18,0.08,0.22c-0.02-0.02-0.04-0.06-0.08-0.14c0.02,0.02,0.02,0.06,0.04,0.1
		c0.02,0.021,0.02,0.061,0.02,0.08c0,0.021,0.02,0.08,0.02,0.14c0.02,0.04,0.02,0.101,0.04,0.141c0,0.18-0.02,0.34-0.08,0.5
		c0,0,0.02-0.04,0.02-0.08c0-0.02,0-0.04,0-0.04c0,0.04-0.02,0.1-0.04,0.14c0,0.061-0.02,0.101-0.02,0.12c0-0.02,0-0.08,0.02-0.12
		c-0.02,0.04-0.04,0.12-0.06,0.181c-0.02,0.08-0.02,0.16-0.04,0.2c0.02-0.141,0.04-0.28,0.06-0.44c0.04-0.18,0.04-0.34,0.02-0.521
		c-0.02-0.16-0.04-0.319-0.14-0.46c-0.04-0.08-0.08-0.14-0.14-0.18c-0.06-0.061-0.12-0.101-0.18-0.141
		c0.02,0.04,0.06,0.061,0.12,0.12c0.08,0.04,0.14,0.12,0.18,0.181c0.02,0.04,0.06,0.12,0.1,0.22c0.02,0.1,0.02,0.22,0.04,0.34
		c0.02,0.181-0.02,0.4-0.04,0.601c-0.04,0.2-0.1,0.38-0.2,0.54c0,0,0,0,0,0.02v-0.02V5.361c0.08-0.159,0.14-0.34,0.18-0.52
		c0.04-0.24,0.06-0.5,0.04-0.74c-0.02-0.021-0.02,0.04-0.02,0.04c0-0.021-0.02-0.101-0.04-0.12c0.02,0.06,0.04,0.14,0.06,0.2
		c-0.02-0.061-0.04-0.12-0.06-0.181c-0.04-0.079-0.04-0.159-0.1-0.239c0.02,0.02,0.04,0.06,0.02,0.12c0.02,0.04,0.02,0.1,0.02,0.14
		c0,0.02-0.02,0-0.04-0.021c0,0-0.02-0.02-0.02-0.04c-0.02-0.039-0.04-0.079-0.04-0.119c-0.04-0.04-0.06-0.08-0.08-0.101
		c-0.06-0.06-0.1-0.1-0.16-0.16h-0.02L7.482,3.6h-0.02c-0.02,0-0.02-0.021-0.04-0.021c-0.02-0.02-0.06-0.02-0.1-0.04
		c-0.1-0.02-0.22,0-0.34,0.04c-0.06,0-0.14,0.021-0.18,0.061c-0.08,0.02-0.14,0.06-0.18,0.08l-0.12,0.06
		c-0.02,0.021-0.06,0.04-0.08,0.08c-0.06,0.04-0.16,0.08-0.2,0.12c-0.14,0.1-0.26,0.2-0.38,0.32
		C5.762,4.382,5.662,4.481,5.582,4.562z M6.762,4.802c-0.04-0.021-0.14-0.04-0.22-0.04c-0.1,0-0.18,0-0.24,0c0.08,0,0.14,0,0.24,0
		C6.602,4.781,6.702,4.781,6.762,4.802z M7.242,4.981c-0.08-0.06-0.14-0.08-0.22-0.1c-0.04-0.021-0.1-0.061-0.16-0.061
		c0.06,0.021,0.12,0.04,0.2,0.08C7.142,4.922,7.182,4.962,7.242,4.981z M7.742,5.462c0,0,0,0-0.02-0.021h0.02
		C7.742,5.462,7.742,5.462,7.742,5.462z M7.742,5.441c0.02,0,0.02-0.02,0.02-0.02c0,0.02,0.02,0.04,0.02,0.04
		C7.782,5.481,7.762,5.462,7.742,5.441z M7.762,5.401c0,0,0,0.021,0,0.04C7.762,5.441,7.762,5.422,7.762,5.401z M7.762,5.422
		c0-0.021,0-0.021,0-0.021V5.422z M8.422,8.063c0.04,0.4,0.02,0.9-0.02,1.38c-0.02,0.24-0.06,0.48-0.06,0.68
		c-0.02,0.121-0.02,0.221-0.04,0.301c0,0.021,0,0.06,0,0.08c0,0,0,0,0,0.021h-0.02c0,0.021,0,0.039,0,0.039
		c0,0.021-0.02,0.062-0.04,0.103c0.02-0.041,0.04-0.08,0.04-0.103c0,0,0.02-0.021,0.02-0.039v-0.021c0-0.021,0-0.021,0-0.041
		c0.02-0.059,0.02-0.139,0.02-0.198c0.02-0.142,0.04-0.261,0.06-0.382c0.02-0.218,0.02-0.438,0.04-0.659
		C8.442,8.843,8.462,8.423,8.422,8.063z M8.663,7.162c0.02-0.06,0.08-0.12,0.14-0.18c0.14-0.2,0.3-0.421,0.48-0.641
		c0.14-0.24,0.32-0.479,0.44-0.7c0.16-0.24,0.3-0.439,0.4-0.62c-0.26,0.42-0.54,0.86-0.82,1.28C9.083,6.602,8.862,6.882,8.663,7.162
		z"/>
	<path d="M17.422,7.942l-0.02,0.06c-0.02,0.04-0.06,0.101-0.1,0.16c-0.02,0.061-0.06,0.12-0.14,0.181c-0.06,0.1-0.14,0.22-0.24,0.34
		c-0.18,0.22-0.38,0.42-0.6,0.62c-0.4,0.381-0.82,0.7-1.26,0.961v0.021c0,0.02-0.02,0.02-0.02,0.041v0.02
		c-0.02,0.061-0.04,0.1-0.06,0.139c-0.02,0.102-0.08,0.182-0.12,0.301c-0.04,0.1-0.1,0.201-0.16,0.32c-0.04,0.1-0.1,0.24-0.22,0.359
		c0.06-0.06,0.16-0.18,0.2-0.32c0.08-0.119,0.18-0.279,0.22-0.379c0.04-0.041,0,0-0.02,0.061c0,0.039-0.02,0.08-0.04,0.1
		c0,0.039,0,0.062,0,0.08c-0.08,0.16-0.18,0.341-0.26,0.459c-0.1,0.16-0.18,0.302-0.3,0.441c-0.14,0.219-0.38,0.459-0.66,0.619
		c-0.1,0.1-0.28,0.201-0.42,0.26c-0.12,0.08-0.3,0.141-0.44,0.182c-0.1,0.039-0.24,0.06-0.34,0.078c-0.02,0-0.04,0-0.08,0
		c-0.02,0-0.04,0-0.1,0c-0.02,0.021-0.04,0.021-0.08,0.021c-0.02,0-0.04,0-0.06,0c-0.12,0-0.26-0.021-0.36-0.021
		c-0.12-0.02-0.24-0.039-0.34-0.078c-0.22-0.079-0.46-0.221-0.64-0.399c-0.18-0.159-0.3-0.381-0.42-0.621
		c-0.12-0.239-0.22-0.5-0.22-0.739c-0.08-0.261-0.08-0.521-0.08-0.779c-0.02-0.121-0.02-0.24-0.02-0.361
		c0.02-0.08,0.02-0.139,0.02-0.199c0.02-0.041,0.02-0.08,0.02-0.1V9.703c0-0.02,0-0.02,0,0V9.664c0.04-0.262,0.08-0.541,0.14-0.761
		v-0.04l0.02-0.06v-0.08c0.02-0.061,0.04-0.12,0.04-0.181c0.06-0.119,0.08-0.239,0.12-0.359c0.08-0.221,0.16-0.46,0.24-0.681
		c0.18-0.439,0.4-0.84,0.7-1.22c0.12-0.2,0.32-0.36,0.44-0.5c0.18-0.16,0.38-0.301,0.56-0.4c0.1-0.061,0.18-0.12,0.32-0.14
		c0.02,0,0.04-0.021,0.08-0.021h0.02c0,0,0,0,0.02,0h0.02h0.04c0.02,0,0.1,0.021,0.16,0.04c0.06,0.021,0.12,0.04,0.18,0.08
		c0.04,0.04,0.08,0.08,0.14,0.14c0.02,0.04,0.02,0.08,0.06,0.12c0.1-0.08,0.18-0.14,0.26-0.18c0.16-0.061,0.26-0.12,0.4-0.14
		c0.14-0.021,0.26-0.021,0.42,0c0.02,0,0.06,0.02,0.08,0.02c0.04,0,0.06,0.02,0.1,0.02c0,0,0.02,0.021,0.04,0.021
		s0.04,0.02,0.06,0.02c0.02,0.021,0.06,0.021,0.1,0.04c0.12,0.08,0.24,0.181,0.34,0.301c0.1,0.1,0.14,0.239,0.2,0.38
		c0.06,0.14,0.1,0.28,0.14,0.44c0.06,0.3,0.06,0.58,0.06,0.84c-0.02,0.12-0.02,0.24-0.02,0.36v0.02v0.021l-0.02,0.06
		c0,0.021-0.02,0.06-0.02,0.08c0,0.06,0,0.1,0,0.14c-0.02,0.24-0.04,0.46-0.1,0.66c-0.02,0.12-0.06,0.221-0.06,0.32
		c-0.02,0.1-0.06,0.2-0.08,0.28c-0.02,0.061-0.04,0.1-0.04,0.141c0,0.02,0,0.039,0,0.061c-0.02,0.02-0.02,0.039-0.02,0.08
		c-0.02,0.02-0.04,0.039-0.04,0.059c0.28-0.16,0.5-0.32,0.72-0.48c0.18-0.119,0.2-0.139,0.3-0.219c0.06-0.04-0.02,0.021-0.02,0.021
		c0.18-0.141,0.38-0.28,0.4-0.301c-0.08,0.061-0.08,0.061-0.2,0.141c-0.02,0.02,0.02-0.021,0.06-0.04c0.06-0.04,0.12-0.08,0.12-0.08
		c-0.06,0.04-0.14,0.1-0.24,0.18c0.1-0.08,0.14-0.12,0.2-0.16s0.1-0.08,0.18-0.16c0.02-0.02-0.02,0.021-0.04,0.04
		c0.02-0.02,0.08-0.06,0.12-0.119c-0.06,0.06,0.04-0.021,0.12-0.101c-0.04,0.021-0.08,0.061-0.12,0.101c0,0,0.02-0.021,0.04-0.021
		c0-0.02,0.02-0.04,0.04-0.04c0.04-0.04,0.06-0.08,0.06-0.08c0.06-0.06-0.06,0.08-0.12,0.141c0.04-0.04,0.12-0.12,0.16-0.16
		c0.12-0.101,0.22-0.221,0.32-0.32h0.12c0,0-0.72,1.201-2.46,2.201c-0.02,0.039-0.04,0.08-0.04,0.08
		c-0.04,0.16-0.12,0.299-0.2,0.459v0.021c-0.34,0.66-0.78,1.319-1.48,1.68c0.04-0.02,0.16-0.08,0.3-0.16c0.1-0.08,0.2-0.16,0.3-0.24
		c0.1-0.1,0.16-0.18,0.24-0.279c0.04-0.021,0.12-0.08,0.16-0.16s0.1-0.159,0.18-0.239c0.12-0.181,0.24-0.382,0.3-0.461
		c-0.02,0.041-0.04,0.079-0.06,0.141c-0.04,0.062-0.06,0.101-0.14,0.199c0.04-0.06,0.1-0.119,0.14-0.22
		c0.04-0.079,0.06-0.159,0.1-0.2c0.02-0.06,0.06-0.16,0.1-0.279c0.06-0.062,0.06-0.118,0.08-0.18c0.02-0.021,0.02-0.021,0.02-0.041
		v-0.021h0.04v-0.02c0,0,0.02-0.02,0.02-0.041c0.02,0,0.02-0.02,0.02-0.02c0.36-0.199,0.66-0.42,0.98-0.661
		c-0.02,0.02-0.08,0.061-0.16,0.1c-0.04,0.041-0.08,0.08-0.08,0.102c0.08-0.061,0.18-0.16,0.28-0.24c0.12-0.08,0.2-0.16,0.24-0.201
		c-0.06,0.061-0.12,0.141-0.24,0.221c0.12-0.08,0.22-0.18,0.34-0.32c0.16-0.12,0.28-0.26,0.38-0.34c-0.22,0.241-0.5,0.5-0.8,0.741
		c-0.26,0.219-0.561,0.439-0.88,0.641l-0.04,0.021l-0.02,0.039c-0.18,0.44-0.36,0.86-0.66,1.222c-0.1,0.221-0.3,0.399-0.44,0.579
		c-0.2,0.16-0.36,0.302-0.56,0.4c0.08-0.021,0.22-0.101,0.44-0.279c0.1-0.08,0.16-0.183,0.26-0.28c0.1-0.101,0.2-0.222,0.26-0.32
		c0.08-0.1,0.22-0.26,0.36-0.5c0.04-0.139,0.12-0.279,0.2-0.439c0-0.061,0.04-0.141,0.12-0.221c0.02-0.039,0.02-0.08,0.02-0.119
		v-0.02l0.02-0.021v-0.02l0.02-0.021h0.02c0.2-0.142,0.42-0.26,0.6-0.42c0.2-0.141,0.4-0.32,0.58-0.48
		c0.4-0.34,0.72-0.72,0.94-1.041c0.1-0.12,0.18-0.24,0.22-0.32L17.422,7.942l-0.04,0.02c-0.04,0-0.1,0-0.12,0c0.02,0,0.08,0,0.12,0
		L17.422,7.942z M11.861,11.523c0-0.039-0.04-0.119-0.04-0.16c0-0.02-0.02-0.08-0.04-0.141c0-0.08-0.04-0.139-0.06-0.219
		c0-0.142-0.02-0.281-0.04-0.4c0-0.141-0.02-0.279-0.02-0.359c0-0.041,0-0.08,0-0.102c-0.04-0.02-0.04-0.039-0.04-0.039
		c-0.02,0.779,0.04,1.301,0.18,1.66c0-0.02-0.02-0.061-0.04-0.119c0-0.061-0.02-0.121-0.04-0.182c0-0.021-0.02-0.08,0-0.119
		c-0.02-0.061-0.02-0.121-0.02-0.141c0,0.02,0.02,0.041,0.04,0.1c-0.02-0.039-0.04-0.1-0.04-0.119c0-0.041,0-0.121-0.02-0.18
		c0-0.101-0.02-0.201-0.02-0.32c0,0.02,0,0.08,0.02,0.08c-0.02-0.041-0.02-0.141-0.02-0.18c0,0.02,0,0.059,0,0.08
		c0-0.021,0-0.062,0-0.121c-0.02-0.039,0-0.101,0-0.14c0,0.38,0.12,0.897,0.22,1.24C11.901,11.623,11.881,11.583,11.861,11.523z
		 M13.101,11.123c-0.1,0-0.18,0-0.26,0c-0.16,0-0.26,0-0.38-0.039c-0.08-0.041-0.18-0.08-0.24-0.121
		c-0.04-0.059-0.1-0.119-0.14-0.159c-0.04-0.039-0.06-0.06-0.1-0.08c-0.08-0.08-0.1-0.14-0.16-0.199c0-0.062,0-0.062-0.02-0.08
		c0-0.021,0.02,0,0,0c-0.02-0.062-0.06-0.101-0.06-0.118c0,0.02,0,0.02,0.02,0.059c0.021,0-0.02-0.039-0.02-0.059
		c0,0.02,0.02,0.039,0.04,0.079c-0.04-0.062-0.04-0.062-0.06-0.12c0,0,0.02,0,0.02,0.02c0-0.02-0.02-0.039-0.02-0.039
		c0,0.02-0.02,0-0.02-0.02c0,0,0,0.02,0.02,0.02c0,0-0.02,0-0.02-0.02c0,0,0,0,0-0.021h-0.02c0-0.02,0.02,0.021,0.04,0.041
		c0,0-0.02-0.041-0.04-0.041c0-0.02,0.02,0,0.02,0c-0.02-0.02-0.04-0.039-0.04-0.059c0,0,0,0,0.02,0.02
		c-0.02-0.02-0.02-0.02-0.02-0.041c0,0.121,0.02,0.281,0.02,0.441c0.02,0.18,0.04,0.34,0.08,0.5c0.021,0.02,0-0.021,0.021-0.021
		c0,0.021,0,0.061,0,0.08c0-0.02-0.021-0.08-0.021-0.119c0.021,0.08,0.06,0.141,0.1,0.279c0-0.039-0.02-0.139-0.04-0.18
		c0,0,0.04,0.02,0.06,0.041c0,0.08,0.04,0.139,0.08,0.199c0.04,0.079,0.12,0.221,0.16,0.319c0.04,0.062,0.08,0.101,0.08,0.142
		c0.02,0,0.04,0.02,0.04,0.02c0.02,0.02,0.02,0.02,0.08,0.02c0.04,0.02,0.08,0,0.14-0.02s0.12-0.08,0.2-0.121
		c0.08-0.059,0.12-0.139,0.2-0.219c0.04-0.08,0.1-0.141,0.14-0.221C13.041,11.222,13.061,11.164,13.101,11.123z M11.981,10.664
		c-0.04-0.021-0.08-0.061-0.08-0.08c0.04,0.039,0.06,0.08,0.12,0.101c0.02,0.021,0.04,0.039,0.08,0.062
		C12.061,10.722,12.021,10.703,11.981,10.664z M12.121,5.702c0.08-0.061,0.22-0.12,0.24-0.141c0.02,0,0.02,0,0.04-0.02
		c-0.02,0-0.08,0.04-0.16,0.1c-0.1,0.04-0.14,0.101-0.2,0.141C12.021,5.782,12.081,5.762,12.121,5.702z M12.141,10.783
		c0.02,0.021,0.06,0.061,0.1,0.08c0.04,0.041,0.06,0.061,0.12,0.061C12.281,10.904,12.201,10.843,12.141,10.783z M12.641,9.923
		c0,0.039,0,0.08,0,0.1c0,0,0,0-0.02,0.02c0,0,0.02-0.039,0.02-0.08c0-0.02,0-0.061,0-0.08C12.641,9.865,12.641,9.902,12.641,9.923z
		 M12.801,9.703c0,0.08,0.02,0.16,0.02,0.24c0.02,0.061,0,0.141,0.02,0.199c0.02,0.061,0.04,0.121,0.08,0.141
		c0,0.021,0,0.021,0,0.021c0.02,0.021,0.02,0.021,0.02,0.021c0.02,0.02,0.04,0.02,0.06,0.039c0.06,0.02,0.18,0.041,0.26,0.061
		c0.06,0,0.14,0,0.2,0c0.06-0.141,0.14-0.239,0.18-0.381c0.14-0.319,0.3-0.641,0.36-0.839c0.06-0.14,0.08-0.26,0.12-0.38
		c0.02-0.04,0.02-0.06,0.02-0.08s0.02-0.04,0.04-0.06c0-0.04,0,0,0,0c0-0.08,0.02-0.181,0.04-0.181
		c-0.02,0.021-0.02,0.021-0.02,0.08c-0.02,0.021,0-0.08,0.02-0.08c-0.02,0.04-0.02,0.061-0.04,0.12c0.02-0.1,0.04-0.1,0.06-0.199
		c0,0,0,0.02-0.02,0.02c0.02,0,0.02-0.04,0.02-0.06c0,0.04,0.02-0.021,0.02-0.061c0,0,0,0.04-0.02,0.061l0.02-0.021v-0.02
		c0-0.021,0-0.021,0-0.021c0-0.02,0-0.02,0-0.02c0.04-0.04,0,0.04,0,0.06c0-0.04,0.04-0.08,0.06-0.12c0-0.04,0-0.06,0-0.1
		l0.02-0.021c0-0.02,0-0.02,0-0.02c0.08-0.36,0.14-0.78,0.1-1.141c-0.02-0.34-0.16-0.64-0.5-0.62c-0.1,0-0.18,0.04-0.26,0.101
		c0.02,0,0.06-0.04,0.12-0.061c0.04,0,0.06-0.02,0.1-0.02s0.08,0,0.14,0c0.02,0,0.04,0,0.06,0.02c0.04,0.021,0.08,0.021,0.08,0.04
		c0.02,0.021,0.06,0.04,0.06,0.08c0.02,0.021,0.02,0.04,0.04,0.06c-0.02,0-0.02-0.02-0.04-0.039c0,0-0.04-0.021-0.06-0.04
		c0.02,0.02,0.04,0.04,0.06,0.06s0.04,0.04,0.04,0.06c0.02,0.021,0.04,0.061,0.06,0.101c0.04,0.04,0.04,0.1,0.06,0.12
		c0.02,0.08,0.02,0.14,0.02,0.22c0.02,0.08,0.02,0.141,0.02,0.2c0-0.021,0-0.1-0.02-0.1c0,0.04,0.02,0.079,0.02,0.14
		c0,0.04-0.02,0.1-0.04,0.12c0.02-0.04,0.02-0.08,0.02-0.12c0,0.04-0.02,0.1-0.02,0.18c0,0.061,0,0.141,0,0.181
		c0-0.12,0.02-0.28,0.02-0.44c-0.02-0.04-0.02-0.14-0.04-0.2c-0.02-0.08,0-0.14-0.06-0.22c-0.02-0.08-0.06-0.141-0.1-0.181
		c-0.06-0.06-0.08-0.079-0.14-0.1c-0.02,0-0.04-0.02-0.1-0.02c-0.02,0-0.02,0-0.04,0l-0.02,0.02h-0.02c-0.06,0-0.1,0.021-0.14,0.06
		c0.02,0,0.06-0.02,0.1-0.039c0.02,0,0.02-0.021,0.04-0.021h0.02h0.02h0.02c0.06,0,0.1,0,0.12,0c0.02,0.021,0.08,0.04,0.1,0.1
		c0.04,0.021,0.06,0.061,0.08,0.101s0.06,0.1,0.08,0.14c0.04,0.04,0.02,0.08,0.02,0.12s0.02,0.101,0.02,0.141
		c0.02,0.08,0.02,0.18,0.02,0.279c0,0.2-0.02,0.381-0.06,0.54c0,0.08-0.02,0.141-0.02,0.181c0.02-0.2,0.08-0.46,0.06-0.721
		c0.02-0.12,0-0.22-0.02-0.34c0-0.02,0-0.04,0-0.04v-0.04v-0.02c0-0.021-0.02-0.04-0.02-0.061c-0.02-0.04-0.04-0.1-0.08-0.14
		c0-0.021,0.02,0.02,0.02,0.02c-0.02,0-0.02-0.02-0.02-0.04c-0.02-0.02-0.04-0.04-0.04-0.04c0.02,0.021,0.04,0.04,0.04,0.061
		c0.02,0.04,0.02,0.06,0.04,0.08c-0.02-0.04-0.04-0.08-0.08-0.141c-0.04-0.04-0.06-0.08-0.12-0.1c0.02,0.02,0.04,0.02,0.06,0.04
		c0,0.04,0.02,0.06,0.04,0.08c0,0.02-0.02,0.02-0.04,0c-0.04-0.021-0.06-0.04-0.08-0.04s-0.04,0-0.1,0c0,0.02-0.02,0.02-0.02,0.02
		s0,0-0.02,0h-0.02h0.02h-0.02c-0.04,0.021-0.06,0.021-0.06,0.04c-0.02,0-0.02,0.021-0.04,0.021c0,0,0,0.02-0.02,0.02
		c-0.02,0.021-0.02,0.04-0.04,0.08c-0.04,0.04-0.1,0.08-0.12,0.141v0.02l-0.04,0.021l-0.02,0.06c-0.02,0.04-0.04,0.08-0.04,0.101
		c-0.04,0.079-0.08,0.159-0.1,0.239l-0.06,0.12l-0.04,0.141c-0.02,0.08-0.08,0.16-0.14,0.239v0.061l-0.02,0.04
		c-0.02,0.04-0.04,0.1-0.06,0.14c-0.06,0.181-0.1,0.34-0.12,0.521C12.881,9.022,12.821,9.382,12.801,9.703z M13.961,9.462
		c-0.02,0.08-0.14,0.301-0.16,0.42C13.841,9.744,13.921,9.583,13.961,9.462z M14.081,8.982c-0.02,0.101-0.02,0.14-0.04,0.22
		c-0.02,0.061-0.04,0.1-0.06,0.16C14.021,9.242,14.061,9.083,14.081,8.982z M15.062,10.263l-0.02,0.02
		c-0.02,0.021-0.02,0.041-0.02,0.041c0,0.02,0,0.039-0.02,0.039c0,0.041,0,0.1-0.04,0.141c-0.06,0.08,0.04-0.08,0.04-0.08
		c0,0.039-0.04,0.119-0.1,0.181c-0.02,0.08-0.04,0.16-0.06,0.199c0.02-0.08,0.1-0.181,0.12-0.279c0.04-0.062,0.04-0.101,0.06-0.159
		c0.02-0.021,0.02-0.021,0.02-0.039c0,0,0-0.021,0.02-0.041C15.062,10.283,15.062,10.283,15.062,10.263z M15.222,9.162
		c0.04-0.139,0.08-0.359,0.12-0.58c0.02-0.239,0.08-0.479,0.1-0.64C15.361,8.343,15.301,8.782,15.222,9.162z"/>
	<path d="M19.061,9.744c0,0.138,0.02,0.279-0.02,0.419c-0.02,0.039,0,0.021,0.02-0.021c0-0.021,0-0.06,0-0.06
		c0,0.039,0,0.101-0.02,0.199c0.02,0.061,0.02,0.141,0.02,0.199c0-0.119-0.02-0.199,0-0.318c0.04-0.121,0.02-0.221,0-0.301
		c0.04,0.16,0,0.359,0,0.561c-0.02,0.24-0.08,0.5-0.14,0.841c0.02-0.08,0.04-0.24,0.08-0.382c0.06-0.18,0.08-0.358,0.1-0.479
		c0-0.041,0,0,0.02,0.1c0,0.039-0.02,0.119-0.02,0.16c-0.04,0.219-0.1,0.379-0.1,0.56c-0.02,0.08-0.02,0.159-0.04,0.239l-0.04,0.08
		h-0.02v0.021v0.039c-0.02,0.041-0.04,0.08-0.04,0.1c-0.08,0.141-0.12,0.281-0.18,0.42c-0.1,0.16-0.18,0.32-0.24,0.461
		c-0.1,0.16-0.26,0.301-0.38,0.459c-0.04,0.041-0.1,0.08-0.12,0.103c0,0.021-0.02,0.021-0.02,0.039l-0.04,0.021l-0.02,0.021
		l-0.04,0.021c-0.04,0.061-0.18,0.141-0.26,0.18c-0.08,0.02-0.16,0.041-0.24,0.061c-0.06,0.02-0.2,0.039-0.28,0.039
		c-0.18,0-0.34-0.059-0.48-0.119l-0.02-0.02c-0.08-0.08-0.2-0.16-0.32-0.24c-0.08-0.102-0.18-0.221-0.22-0.34
		c-0.06-0.141-0.16-0.301-0.16-0.441c-0.02-0.08,0-0.18,0.02-0.26c0-0.061,0-0.141,0.02-0.24c0.02-0.16,0.04-0.279,0.14-0.42
		c0.06-0.141,0.1-0.24,0.18-0.359c0.1-0.16,0.24-0.301,0.36-0.42l-0.3-0.86c0-0.059-0.02-0.08-0.06-0.16v-0.02
		c0-0.301-0.14-0.6-0.16-0.92c0.02-0.16,0-0.319,0.02-0.5c0-0.08,0-0.16,0.02-0.22c0.06-0.061,0.06-0.12,0.08-0.16v-0.02V7.782
		c0.02,0,0.02,0,0,0c0.02,0,0.02,0,0.02-0.02c0-0.021,0.02-0.04,0-0.061c0.04-0.1,0.06-0.16,0.1-0.26
		c0.02-0.021,0.02-0.04,0.02-0.04c0.02-0.021,0.02-0.04,0-0.061l0.02-0.02l0.02-0.021l0.04-0.06c0.1-0.14,0.18-0.24,0.3-0.38
		c0.14-0.24,0.4-0.44,0.64-0.62c0.2-0.221,0.46-0.38,0.72-0.521c0.12-0.08,0.28-0.14,0.4-0.2h0.02l0.02-0.02l0.04-0.021
		c0.04-0.02,0.08-0.02,0.1-0.02c0.06-0.04,0.14-0.061,0.18-0.08c0.16-0.061,0.28-0.12,0.42-0.12c0.12-0.04,0.28-0.08,0.42-0.1
		c0.08,0,0.14,0,0.2,0c0.1,0,0.18,0,0.26,0.02c0.08,0,0.14,0.04,0.22,0.08c0.04,0.021,0.08,0.06,0.1,0.12
		c0.06,0.06,0.1,0.08,0.14,0.14c0,0.061-0.02,0.12,0,0.16c0,0.08-0.02,0.141-0.06,0.16c0,0.021,0,0.021,0.02,0.04l-0.02,0.021v0.02
		v0.02v0.04c0,0.04-0.06,0.101-0.08,0.141c-0.04,0.08-0.06,0.16-0.1,0.24c-0.04,0.06-0.12,0.16-0.22,0.239
		c-0.08,0.04-0.16,0.101-0.3,0.12c-0.02,0.021-0.04,0.021-0.06,0.021s-0.04,0-0.04,0c0,0.02,0,0.02-0.02,0.02h-0.02
		c-0.04-0.02-0.1-0.02-0.18-0.04c-0.04-0.02-0.1-0.06-0.18-0.1c-0.04-0.04-0.04-0.1-0.06-0.16c0,0.021-0.02,0.04-0.02,0.04
		c-0.12,0.1-0.2,0.16-0.26,0.24c-0.18,0.2-0.28,0.38-0.4,0.6c0,0.061,0,0.16,0,0.261c-0.02,0.1,0.02,0.18,0.04,0.26V7.9V7.86
		c-0.04,0.1-0.02,0.14,0.02,0.2c0,0.02,0.02,0.04,0.02,0.04c0,0.02,0,0.04,0,0.06c0,0.021,0,0.04,0,0.101
		c0.06,0.12,0.12,0.239,0.14,0.38c0.06,0.2,0.1,0.4,0.16,0.56c0.04-0.041,0.1-0.061,0.14-0.08c0.38-0.2,0.64-0.36,1-0.52
		c0.16-0.08,0.2-0.101,0.32-0.16c0.1-0.04-0.02,0.021,0,0.021c0.18-0.101,0.4-0.2,0.44-0.24c-0.1,0.06-0.1,0.06-0.2,0.12
		c-0.06,0.04,0.16-0.08,0.18-0.08c-0.08,0.04-0.14,0.08-0.24,0.12c0.18-0.101,0.2-0.101,0.46-0.221c0.02,0-0.02,0-0.08,0.021
		c0.02-0.021,0.1-0.04,0.2-0.08c-0.1,0.06,0.02,0,0.08-0.04c0,0-0.04,0.04-0.1,0.06c0,0,0.02-0.02,0.04-0.02
		c0-0.021,0.02-0.021,0.06-0.04c0,0,0.02-0.021,0.04-0.021c0.02-0.02,0.02-0.02,0.02-0.02c0.1-0.04-0.08,0.06-0.16,0.1
		c0.06-0.04,0.16-0.08,0.2-0.1c0.02,0,0.02,0,0.02,0c0.3-0.12,0.46-0.22,0.46-0.22v0.02l-0.08,0.18c0,0-2.061,1.021-2.821,1.681
		c0.04,0.319-0.02,0.959-0.3,1.76c-0.2,0.461-0.44,0.938-0.72,1.281c0-0.021,0.02-0.041,0.08-0.062c0.04-0.061,0.08-0.16,0.16-0.24
		c0.04-0.118,0.16-0.239,0.24-0.358c0.04-0.121,0.1-0.263,0.12-0.381c0.02-0.021,0.06-0.101,0.08-0.199
		c0.08-0.08,0.12-0.2,0.14-0.301c0.04-0.121,0.06-0.24,0.08-0.32c0.08-0.118,0.08-0.18,0.08-0.239c0,0.041,0.02,0.08-0.04,0.141
		c0,0.08,0,0.141-0.06,0.26c0.06-0.08,0.06-0.16,0.12-0.279c-0.02-0.08,0.02-0.16,0.02-0.221c0.02-0.041,0-0.221,0.04-0.34
		c0.04-0.16,0-0.301,0-0.381c0.02-0.039,0.02-0.059,0.02-0.08c0.12-0.139,0.24-0.24,0.4-0.34c0.2-0.1,0.34-0.221,0.48-0.299
		c-0.02,0.02-0.08,0.059-0.14,0.079c-0.04,0.041-0.1,0.08-0.1,0.102c0.08-0.061,0.2-0.121,0.34-0.201c0.1-0.1,0.22-0.14,0.26-0.18
		c-0.1,0.06-0.18,0.12-0.26,0.18c0.08-0.06,0.24-0.16,0.38-0.26c0.18-0.08,0.38-0.2,0.48-0.24c-0.3,0.16-0.58,0.32-0.88,0.541
		c-0.18,0.08-0.32,0.199-0.5,0.32c-0.16,0.08-0.28,0.16-0.38,0.299c0-0.039,0-0.059,0-0.059s0,0.02-0.02,0.02v-0.02
		c0,0,0,0.02-0.02,0.059c0-0.039,0-0.039,0-0.059C19,9.723,19,9.744,18.98,9.764c0,0,0.02,0,0.02-0.02c0,0.02-0.02,0.039-0.02,0.039
		s0,0,0.04-0.02c-0.04,0.02-0.04,0.02-0.04,0.039C19,9.782,19,9.782,19.04,9.763c0.02,0.219-0.04,0.48-0.02,0.719
		c-0.02,0.24-0.12,0.521-0.22,0.781c0,0.061,0,0.119-0.04,0.199c-0.06,0.041-0.08,0.121-0.1,0.201c-0.04,0.1-0.1,0.239-0.14,0.358
		c-0.12,0.24-0.26,0.461-0.42,0.701c0.02-0.041,0.08-0.08,0.14-0.183c0.06-0.08,0.12-0.18,0.18-0.278
		c0.08-0.142,0.14-0.261,0.18-0.4s0.1-0.26,0.18-0.399c0.02-0.119,0.12-0.379,0.18-0.68c0.06-0.279,0.08-0.66,0.1-1.021
		C19.061,9.744,19.061,9.744,19.061,9.744z M16.6,12.423c0-0.041,0-0.062-0.02-0.08c0-0.02,0-0.039,0-0.061
		C16.581,12.324,16.581,12.382,16.6,12.423z M16.6,12.263c0,0,0-0.039,0-0.08c0.02-0.02,0.02-0.061,0.02-0.08
		c0,0.02,0,0.061-0.02,0.08C16.6,12.203,16.6,12.263,16.6,12.263z M16.74,12.564c0-0.121,0-0.26,0.04-0.381c0.02-0.02-0.02,0-0.02,0
		s0.04-0.02,0.04-0.039c-0.02,0.02-0.04,0.039-0.04,0.08c0-0.041,0.02-0.061,0.02-0.08c0-0.021,0-0.061,0-0.08
		c0,0-0.02,0.02-0.02,0.039c0,0-0.02,0.02-0.02,0.041c-0.02,0-0.02-0.021-0.04-0.021c0,0,0,0,0-0.02s0.02-0.039,0.02-0.061
		c0-0.021,0.02-0.06,0.02-0.08c0.02-0.039,0.02-0.101,0.04-0.101c0.02-0.038,0.04-0.062,0.04-0.1c0-0.021,0-0.021,0-0.041
		s0-0.039,0.02-0.039c0.04-0.08,0.08-0.181,0.18-0.24c0-0.021,0-0.021,0-0.039c0-0.079,0-0.141-0.02-0.221
		c-0.08,0.08-0.12,0.142-0.18,0.221c-0.02,0.021-0.02,0.021-0.02,0.021s0,0,0-0.021c-0.02,0.039-0.06,0.06-0.1,0.08
		c0,0.021-0.02,0.021-0.02,0.06c0,0.061,0,0.102-0.02,0.141c0,0,0,0.02,0,0.039c0,0.021,0.02,0.021,0.02,0.041s0,0.02,0,0.039
		c0,0.021-0.02,0.041-0.02,0.061v0.041c0,0.039,0.02,0.08,0.02,0.1c0,0.021,0,0.021,0,0.039c0,0,0,0,0,0.021c0,0,0,0.02,0.02,0.039
		c0,0,0,0,0,0.02c0,0.021,0,0.041-0.02,0.062c0,0.08,0,0.101,0,0.142c0,0.059,0,0.1,0,0.118s0,0.021,0,0.041s0,0,0,0
		c0,0.021,0,0.021,0,0.021C16.7,12.523,16.74,12.542,16.74,12.564z M16.98,11.904c-0.02,0-0.02,0.08-0.02,0.139
		c0,0.021,0,0.021,0,0.041c0,0.039-0.02,0.062-0.02,0.08c-0.02-0.02-0.02-0.041-0.02-0.061c0,0.02,0,0.041,0,0.061
		c-0.04,0.021-0.04,0.062-0.04,0.101l-0.04,0.021c0,0.021,0,0.041,0,0.041c-0.02,0.02-0.02,0.039-0.02,0.039
		c0,0.02-0.02,0.02-0.02,0.04l0.02-0.04c-0.02,0.02-0.04,0.079-0.04,0.079s0-0.021,0-0.039c0,0.021,0,0.039-0.02,0.039
		c0,0.021,0,0.041,0,0.062c0-0.062,0.02-0.18,0.04-0.279c0.02-0.041,0.04-0.061,0.04-0.102c0-0.021,0-0.039,0-0.06s0-0.062,0-0.08
		c0-0.021,0-0.062,0-0.08c-0.02,0-0.02,0.021-0.02,0.06c0,0.021,0.02,0.061,0.02,0.102c-0.04,0-0.02,0.08-0.06,0.199
		c0,0-0.02,0.041-0.02,0.061c0,0.021,0,0.021,0,0.039v0.02c0,0.021-0.02,0.021-0.02,0.041c0,0.021,0,0.062,0,0.08
		c0,0.02,0,0.039,0,0.039c0,0.021,0,0.021,0,0.021c0.02,0.02,0.04,0.02,0.04,0.039C16.9,12.382,16.96,12.123,16.98,11.904z
		 M18.381,5.782c0.04-0.021,0.08-0.061,0.12-0.101h0.02h0.02c0.02-0.02,0.02-0.02,0.04-0.02c0.02-0.021,0.02-0.021,0.02-0.021
		c0.02,0,0.02,0,0.04,0h-0.04c-0.02,0.021-0.04,0.021-0.06,0.021c0,0.02-0.02,0.02-0.02,0.02h-0.02c0,0-0.02,0.04-0.04,0.04
		c-0.06,0.04-0.14,0.101-0.26,0.12C18.181,5.842,18.301,5.822,18.381,5.782z M18.521,7.942c-0.02-0.021-0.02-0.021-0.02-0.021v-0.02
		c0-0.04,0-0.04,0-0.06c0,0.02,0,0.06,0,0.06v0.02c0-0.02,0-0.02,0-0.02v0.02C18.501,7.922,18.501,7.922,18.521,7.942z
		 M18.501,7.902c0,0,0,0,0,0.02V7.902z M18.521,7.942c-0.02,0.06,0,0.16,0.02,0.22c0.04,0.12,0.08,0.221,0.1,0.301
		c0.04,0.18,0.08,0.359,0.1,0.54c0-0.12-0.08-0.32-0.1-0.521c-0.02-0.1-0.06-0.2-0.1-0.32C18.501,8.082,18.501,8.002,18.521,7.942z
		 M18.981,9.664c0,0.02,0,0.02,0,0.059l-0.02,0.021C18.961,9.722,18.961,9.683,18.981,9.664z M19.001,9.263
		c0.2-0.121,0.5-0.321,0.66-0.401c-0.2,0.101-0.36,0.2-0.52,0.28C19.081,9.183,19.041,9.222,19.001,9.263z M19.001,9.744
		c0.02,0,0.02,0,0.02-0.021l0.02,0.021C19.021,9.744,19.021,9.744,19.001,9.744z M19.021,9.763c0,0,0-0.02,0.02-0.02
		C19.021,9.763,19.021,9.763,19.021,9.763z M19.041,9.683c0,0.039,0.02,0.039,0.02,0.039c-0.02,0.021-0.02,0.021-0.02,0.021
		C19.041,9.722,19.041,9.722,19.041,9.683z M19.041,9.744c0,0,0,0,0.02,0c0,0,0,0,0,0.02h-0.02
		C19.041,9.763,19.041,9.763,19.041,9.744z M21.841,7.822c-0.02,0.08-0.06,0.14-0.06,0.18v0.021H21.76c-0.44,0.28-0.9,0.54-1.4,0.82
		c-0.12,0.08-0.24,0.16-0.34,0.24c-0.14,0.059-0.24,0.139-0.34,0.219c-0.16,0.08-0.28,0.16-0.4,0.24
		c-0.06,0.061-0.14,0.121-0.22,0.201c0.14-0.16,0.32-0.281,0.56-0.381c0.18-0.18,0.4-0.3,0.62-0.46c0.46-0.26,0.86-0.5,1.2-0.7
		c0.12-0.06,0.22-0.12,0.32-0.18l0.021-0.021C21.822,7.942,21.822,7.862,21.841,7.822z M19.061,9.722v0.021
		C19.061,9.744,19.061,9.744,19.061,9.722z"/>
	<path d="M26.001,8.042c0,0-0.14,0.261-0.399,0.681c-0.04,0.08-0.08,0.18-0.141,0.26c-0.16,0.32-0.34,0.66-0.54,0.96
		c-0.4,0.641-0.82,1.279-1.32,1.801c-0.04,0.06,0.08-0.061,0.08-0.08c-0.02,0.039-0.08,0.101-0.14,0.18
		c-0.061,0.062-0.12,0.101-0.141,0.142c0.061-0.062,0.141-0.142,0.221-0.239c0.08-0.08,0.14-0.16,0.199-0.24
		c-0.1,0.141-0.22,0.299-0.399,0.459c-0.08,0.102-0.181,0.201-0.301,0.301c-0.1,0.1-0.22,0.199-0.38,0.301
		c0.08-0.061,0.221-0.141,0.36-0.26c0.12-0.102,0.28-0.24,0.38-0.342c0.021-0.021,0,0.021-0.04,0.08
		c-0.04,0.061-0.1,0.141-0.12,0.16c-0.18,0.16-0.319,0.28-0.479,0.399c-0.16,0.121-0.341,0.201-0.521,0.301H22.3
		c-0.101,0.039-0.44,0.16-0.86,0.08c-0.04,0-0.08,0-0.08,0c-0.14-0.041-0.3-0.101-0.46-0.18c-0.14-0.08-0.28-0.183-0.4-0.302
		c-0.12-0.1-0.24-0.239-0.34-0.381c-0.08-0.16-0.14-0.319-0.2-0.459c-0.04-0.16-0.08-0.301-0.1-0.461
		c-0.06-0.32-0.06-0.6-0.06-0.899c0-0.14,0.02-0.32,0.04-0.46c0.02-0.14,0.04-0.28,0.06-0.419c0.04-0.301,0.1-0.581,0.18-0.841
		c0.16-0.58,0.38-1.14,0.7-1.62c0.14-0.26,0.34-0.479,0.54-0.7c0.16-0.24,0.38-0.439,0.64-0.6c0.061-0.04,0.12-0.061,0.181-0.101
		c0.06-0.04,0.12-0.08,0.18-0.12c0.14-0.06,0.28-0.12,0.42-0.18c0.141-0.02,0.301-0.06,0.44-0.06c0.06-0.021,0.16-0.021,0.24-0.021
		c0.02,0,0.04,0,0.04,0h0.04c0,0,0.02,0,0,0h0.02h0.021c0.04,0.021,0.06,0.021,0.1,0.021c0.16,0.04,0.28,0.06,0.42,0.119
		c0.16,0.061,0.28,0.12,0.4,0.2c0.1,0.08,0.22,0.16,0.32,0.261c0.12,0.1,0.22,0.22,0.3,0.359c0.08,0.141,0.14,0.28,0.18,0.42
		c0.021,0.08,0.04,0.141,0.061,0.221c0,0.04,0,0.06,0,0.12c0,0.02,0,0.04,0,0.06c0,0.021,0,0.04,0,0.061v0.04c0,0.02,0,0.04,0,0.06
		c0,0.04,0,0.08,0,0.1c-0.021,0.101-0.04,0.16-0.061,0.24c-0.04,0.141-0.1,0.261-0.18,0.381c-0.14,0.239-0.34,0.46-0.521,0.62
		c-0.16,0.18-0.359,0.319-0.58,0.479c-0.08,0.021-0.14,0.061-0.22,0.12l-0.06,0.021l-0.021,0.02h-0.02v0.02h-0.021
		c-0.04,0-0.06,0.02-0.1,0.039c-0.16,0.08-0.32,0.141-0.48,0.182c-0.26,0.119-0.561,0.219-0.84,0.299c0,0.021,0,0.061-0.021,0.102
		c0,0.078,0,0.138,0,0.218c-0.02,0.16-0.02,0.302-0.02,0.441c0,0.139,0,0.279,0.02,0.42c0.021,0.139,0.04,0.26,0.061,0.398
		c0.04,0.061,0.06,0.16,0.1,0.201c0.021,0.08,0.06,0.141,0.12,0.18c0.06,0.061,0.12,0.08,0.18,0.1c0.061,0.021,0.141,0.021,0.2,0
		c0.061-0.02,0.12-0.059,0.181-0.08c0.06-0.039,0.119-0.08,0.18-0.119c0.02-0.02,0.04-0.041,0.06-0.041
		c-0.06,0.041-0.1,0.08-0.14,0.103c-0.061,0.06-0.16,0.158-0.26,0.22c0,0,0,0,0,0.02c-0.08,0-0.141,0.021-0.221,0
		c-0.06-0.02-0.1-0.039-0.18-0.059c0.08,0.039,0.14,0.059,0.2,0.059c0.06,0.021,0.14,0,0.2,0c0,0-0.021,0-0.021,0.021
		c0-0.021,0.021-0.021,0.04-0.021c0.101-0.039,0.24-0.119,0.48-0.299c-0.04,0.039-0.061,0.061-0.12,0.061
		c-0.061,0.059-0.12,0.1-0.181,0.139c-0.06,0.041-0.119,0.062-0.199,0.101c0-0.021,0-0.021,0-0.021c0.08-0.02,0.16-0.039,0.22-0.08
		c0.06-0.059,0.14-0.1,0.22-0.139c0.021-0.021,0.061-0.061,0.08-0.08c0.021-0.021,0.04-0.041,0.08-0.08c0,0,0.021,0,0.04-0.021
		c0.141-0.16,0.3-0.341,0.44-0.5c-0.08,0.062-0.181,0.18-0.12,0.12c-0.12,0.119-0.16,0.181-0.2,0.22
		c-0.04,0.021-0.06,0.041-0.12,0.103c0-0.021,0.061-0.103,0.141-0.16c0.04-0.062,0.1-0.121,0.14-0.18
		c0.1-0.103,0.18-0.183,0.24-0.281c0.26-0.24,0.42-0.5,0.62-0.76c0.34-0.5,0.74-1.122,1.2-1.902h0.142V8.042z M21.521,12.804
		c-0.02,0-0.04,0-0.06,0c-0.04-0.021-0.08-0.021-0.1-0.041c-0.12-0.039-0.26-0.1-0.38-0.141c0.04,0.021,0.14,0.08,0.28,0.141
		c0.08,0.02,0.14,0.041,0.22,0.041C21.5,12.804,21.521,12.804,21.521,12.804z M25.562,8.803c-0.78,1.28-2.421,3.8-3.762,3.86
		c-0.02,0-0.039,0-0.08,0c-0.2-0.02-0.36-0.041-0.54-0.121c0.08,0.041,0.18,0.08,0.26,0.08c0.1,0.041,0.22,0.062,0.359,0.062
		c0.12-0.021,0.221-0.039,0.32-0.062c0.04,0,0.12-0.039,0.221-0.08c0.1-0.039,0.22-0.1,0.319-0.16c0.221-0.139,0.4-0.317,0.48-0.379
		c-0.021,0.021-0.061,0.062-0.1,0.119c-0.04,0.041-0.12,0.121-0.2,0.183c0.06-0.041,0.14-0.103,0.22-0.183
		c0.06-0.08,0.14-0.139,0.18-0.199c0.04-0.02,0.181-0.141,0.28-0.239c0.101-0.119,0.22-0.24,0.26-0.302
		c0.341-0.358,0.62-0.739,0.841-1.1c0,0.021-0.061,0.08-0.101,0.16c-0.02,0.039-0.06,0.08-0.06,0.08c0,0.02-0.021,0.039-0.021,0.039
		c0.061-0.08,0.141-0.199,0.24-0.34c0.08-0.139,0.16-0.26,0.2-0.299c-0.06,0.059-0.12,0.199-0.2,0.299
		c0.061-0.08,0.2-0.279,0.3-0.459c0.12-0.18,0.221-0.361,0.301-0.48c-0.16,0.279-0.36,0.599-0.58,0.939
		c-0.221,0.34-0.44,0.682-0.721,1.021c-0.14,0.159-0.279,0.319-0.42,0.5c-0.16,0.18-0.34,0.319-0.52,0.479
		c-0.16,0.157-0.341,0.278-0.561,0.397c-0.12,0.041-0.22,0.103-0.32,0.142c0.101-0.039,0.2-0.08,0.3-0.142
		c0.08-0.02,0.181-0.059,0.28-0.139c0.12-0.061,0.24-0.16,0.36-0.26c0.26-0.24,0.54-0.521,0.78-0.82
		c0.36-0.42,0.68-0.922,1.021-1.441C25.141,9.562,25.381,9.142,25.562,8.803z M22.5,8.022c0.04,0,0.061-0.021,0.101-0.021
		c0.14-0.02,0.3-0.04,0.44-0.08c0.1-0.02,0.22-0.04,0.34-0.079c0.12-0.061,0.22-0.101,0.32-0.141c0.079-0.06,0.159-0.12,0.22-0.16
		c0.06-0.06,0.1-0.14,0.14-0.18c0.061-0.08,0.08-0.16,0.101-0.22c0-0.021,0-0.04,0-0.04c0-0.021,0.02-0.04,0.02-0.04
		c0-0.021,0,0,0,0c0-0.04,0-0.101,0-0.101c0,0.021,0,0.021,0,0.04c0,0.021,0-0.04,0-0.04c0,0.021,0,0.04,0,0.061
		c0-0.021,0-0.04,0-0.061V6.94c0,0,0.021-0.021,0.021-0.04c0,0,0,0,0,0.02c0,0,0-0.02,0-0.04c0,0.021,0-0.02,0-0.04c0,0,0,0,0,0.021
		c0,0,0,0,0,0.02v-0.02c0,0,0,0,0-0.021c0-0.02,0,0,0,0.04c0-0.02,0-0.04,0-0.04c0-0.04-0.021-0.08-0.04-0.12
		c-0.141-0.479-0.7-0.3-1.2,0.141c0,0,0.04-0.021,0.06-0.021c0.04-0.04,0.1-0.08,0.14-0.12c0.021,0,0.061-0.04,0.101-0.04
		c0.06-0.04,0.1-0.06,0.12-0.06c0,0.02-0.021,0.04-0.061,0.06c0.021,0,0.04-0.02,0.04-0.04c0.021,0,0.04-0.02,0.04-0.02
		c0.021-0.021,0.04-0.021,0.08-0.04c0.021-0.021,0.04-0.04,0.061-0.04c0.08-0.04,0.16-0.06,0.239-0.06h-0.06c0.02,0,0.06,0,0.08,0
		s0.06,0,0.06,0h-0.02c-0.021,0-0.021,0-0.04,0c0.02,0,0.06,0,0.1,0c0.021,0.02,0.061,0.02,0.08,0.02c-0.02,0-0.06,0-0.1-0.02
		c-0.04,0-0.08,0-0.12,0.02c-0.08,0-0.16,0.04-0.24,0.1c-0.08,0.061-0.14,0.12-0.24,0.181c-0.06,0.06-0.14,0.14-0.2,0.2
		c0.021,0,0.04-0.021,0.08-0.061c0.04-0.06,0.08-0.08,0.12-0.12c0.061-0.02,0.181-0.12,0.28-0.2c0.101-0.06,0.2-0.1,0.3-0.1
		c0.021,0,0.04,0,0.061,0c0.02,0,0.02,0,0.04,0c0,0,0.02,0.021,0.04,0.021c0.02,0.02,0.06,0.06,0.1,0.1
		c0.021,0.04,0.04,0.08,0.04,0.1c-0.02-0.04-0.04-0.12-0.12-0.16c-0.04-0.06-0.1-0.06-0.16-0.06c-0.06,0-0.12,0.021-0.18,0.04
		c-0.06,0.04-0.12,0.08-0.18,0.12c0,0.02,0.02,0,0.02,0c0,0.02-0.04,0.02-0.06,0.04c0.04-0.021,0.08-0.04,0.1-0.061
		c-0.04,0.04-0.1,0.08-0.2,0.181c0.04-0.021,0.101-0.061,0.141-0.101c0.02,0.021-0.021,0.061-0.021,0.08
		c-0.04,0.04-0.08,0.101-0.12,0.16c-0.08,0.08-0.16,0.181-0.24,0.28c-0.079,0.08-0.159,0.16-0.22,0.26
		c-0.08,0.08-0.14,0.16-0.22,0.24C22.621,7.843,22.561,7.922,22.5,8.022z M22.721,8.223c-0.021-0.021-0.08,0-0.101,0
		c-0.02,0.02,0.061,0,0.08,0C22.701,8.223,22.701,8.223,22.721,8.223z M24.021,7.502c0,0.021-0.02,0.04-0.04,0.04
		c0,0.021-0.02,0.04-0.04,0.061c-0.02,0.04-0.06,0.08-0.1,0.1C23.921,7.643,23.981,7.563,24.021,7.502z M24.162,7.242
		c0,0.02-0.021,0.02-0.021,0.04c0,0.02,0,0.02,0,0.04c-0.02,0.02-0.02,0.04-0.02,0.04c-0.021,0.02-0.061,0.06-0.08,0.1
		c0.02-0.02,0.02-0.04,0.06-0.06c0-0.021,0-0.021,0-0.04c0.021,0,0.021,0,0.021,0C24.141,7.322,24.141,7.262,24.162,7.242z
		 M25.122,6.862c0.02,0.06,0.02,0.14,0.02,0.18c0,0.061,0,0.101-0.02,0.141c0,0,0,0,0,0.02c0,0,0.02-0.1,0.02-0.2
		s-0.02-0.22-0.04-0.3C25.101,6.682,25.122,6.762,25.122,6.862z"/>
	<path d="M34.82,14.724c-0.08,0.141-0.139,0.26-0.18,0.379c-0.119,0.262-0.279,0.5-0.42,0.74c-0.32,0.461-0.699,0.842-1.16,1.16
		c-0.4,0.32-0.859,0.521-1.302,0.701c-0.438,0.141-0.858,0.221-1.26,0.26c-0.039,0-0.039,0-0.039,0c0,0.02,0.021,0.02,0.039,0.02
		c0.039,0,0.101,0,0.101,0c-0.021,0-0.039,0-0.062,0c0,0-0.021,0-0.039,0s-0.039,0-0.062,0.021c0,0-0.02,0-0.039,0
		c0,0-0.041,0-0.08,0c-0.079,0-0.221-0.021-0.239-0.021c0.119,0.021,0.239,0.021,0.399,0.021c0.14-0.021,0.279-0.041,0.379-0.062
		c-0.1,0.021-0.219,0.039-0.34,0.062c0,0-0.02,0-0.039,0c-0.019,0-0.041,0-0.061,0s-0.061,0-0.1,0c-0.062,0.02-0.121,0-0.221,0
		c-0.142-0.021-0.261-0.08-0.421-0.16c-0.118-0.08-0.319-0.24-0.438-0.4c0.059,0.039,0.1,0.1,0.139,0.18
		c0.08,0.08,0.16,0.16,0.221,0.199c0.101,0.061,0.221,0.121,0.301,0.16c0.06,0.041,0.181,0.061,0.24,0.08
		c0.06,0.021,0,0.021-0.08,0.021c-0.102-0.021-0.16-0.041-0.221-0.041c-0.26-0.101-0.461-0.24-0.619-0.461
		c-0.102-0.158-0.221-0.34-0.341-0.58c-0.08-0.16-0.12-0.379-0.14-0.619c-0.08-0.18-0.102-0.42-0.12-0.68
		c-0.021-0.48-0.021-1.021,0.021-1.541c0-0.5,0.061-1.021,0.159-1.541c0.08-0.521,0.16-1.039,0.3-1.539
		c0.16-1.021,0.461-2.082,0.84-3.083c0.361-1,0.781-1.98,1.222-2.94c0.26-0.479,0.521-0.94,0.76-1.4
		c0.121-0.2,0.261-0.439,0.42-0.66l0.021-0.04l0.039-0.06c0-0.021,0.021-0.04,0.021-0.061L32.48,2.8l0.02-0.02V2.761l0.02-0.02
		l0.041-0.06c0.021-0.04,0.039-0.08,0.062-0.101c0-0.04,0.039-0.06,0.039-0.08V2.48c0-0.021,0,0,0-0.021V2.48l0.021-0.021
		c-0.021,0-0.021,0-0.021,0h0.021v-0.02V2.421h0.021H32.68c0.021,0,0,0,0.021,0c0.02,0,0.039-0.02,0.059-0.04l0.08,0.08
		c0,0,0,0.021,0.021,0.021L32.84,2.461l0.021,0.021c0,0,0,0,0.02,0c-0.02,0-0.02-0.021-0.041-0.021h0.021l0.02,0.021l-0.02-0.021
		c-0.021,0-0.021-0.02-0.021-0.02v0.02c-0.039-0.04-0.039-0.06-0.08-0.08c0-0.02,0-0.02,0.021-0.02c-0.021,0-0.021,0-0.021,0
		c0.061,0.04,0.08,0.08,0.141,0.12c0.021,0.02,0.041,0.02,0.041,0.02l-0.159-0.14c0.219-0.32,0.438-0.601,0.68-0.82
		c0.119-0.101,0.279-0.22,0.399-0.34c0.101-0.061,0.16-0.08,0.22-0.141c0.041-0.02,0.062-0.04,0.103-0.06
		c0.039-0.021,0.059-0.021,0.059-0.04l0.021-0.021h0.02l0.02-0.02l0.062-0.04l0.079,0.02c0.119,0,0.22,0.04,0.341,0.08
		c0.08,0.04,0.159,0.101,0.239,0.141c0.14,0.14,0.261,0.3,0.341,0.439l0.118,0.16l-0.1,0.261c-0.061,0.06-0.08,0.119-0.08,0.159
		c-0.061,0.08-0.1,0.141-0.119,0.2c-0.041,0.12-0.102,0.24-0.141,0.341c-0.119,0.22-0.221,0.439-0.279,0.68
		c-0.201,0.46-0.44,0.9-0.58,1.34c-0.36,0.82-0.701,1.681-1.021,2.541c-0.299,0.84-0.619,1.721-0.84,2.56
		c-0.199,0.68-0.382,1.4-0.462,2.021c-0.02,0.299-0.059,0.6-0.038,0.84c-0.039,0.26-0.021,0.48,0.038,0.66
		c0.041,0.24,0.121,0.42,0.281,0.539c0.119,0.102,0.299,0.16,0.48,0.201c0.02,0,0.08,0,0.139,0c0,0,0.041,0,0.08-0.02
		c0.061,0,0.102,0,0.201-0.021c0.1,0-0.061,0.021-0.041,0.021c0.141-0.021,0.281-0.062,0.381-0.103c0.16-0.021,0.24-0.06,0.26-0.039
		c-0.039,0.021-0.1,0.039-0.16,0.039c-0.02,0.021-0.061,0.021-0.141,0.062c-0.039,0.02,0.021,0,0.102-0.021
		c0.06-0.021,0.119-0.041,0.14-0.041c-0.08,0.041-0.181,0.08-0.358,0.121c0.159-0.041,0.239-0.062,0.319-0.08
		c0.062-0.021,0.181-0.062,0.34-0.101c0.021,0-0.041,0-0.079,0.021c0.038-0.021,0.118-0.021,0.221-0.08
		c0.02,0,0.02-0.021,0.039-0.021c-0.021,0.021-0.021,0.021-0.039,0.021c-0.041,0.021-0.041,0.021,0,0.021v-0.021
		c0.02,0,0.039,0,0.059,0c0,0,0,0,0.021,0c0.039,0,0.08,0,0.1,0c0,0-0.02,0-0.061,0c-0.039,0-0.062,0-0.08,0.021
		c0,0,0.041-0.021,0.121-0.021c0.039,0,0.119,0,0.1,0c0.039,0.021,0.061,0.021,0.039,0.021c0,0-0.039,0-0.08,0
		c-0.02,0.02-0.059,0.02-0.08,0.02c-0.059,0.021-0.08,0.021-0.08,0.021s0.061,0,0.121,0c0.039,0,0.1,0,0.141,0c0.021,0,0.021,0,0,0
		c0.158,0.02,0.299,0.119,0.34,0.438c0.06,0.58-1.201,3.142-4.162,3.4c-1.08,0.1-1.539-1.021-1.64-2.761
		c0.021,0.06,0.04,0.32,0.062,0.58c0,0.199,0.039,0.379,0.099,0.601c0,0.159,0.062,0.34,0.121,0.479
		c0.039,0.062,0.039,0.199,0.08,0.299c0.021,0.121,0.101,0.263,0.198,0.381c0.101,0.101,0.222,0.181,0.302,0.24
		c0.08,0.08,0.18,0.142,0.239,0.181c-0.041-0.021-0.102-0.039-0.18-0.08c-0.061-0.039-0.16-0.101-0.221-0.181
		c0.039,0.062,0.119,0.142,0.24,0.222c0.1,0.039,0.199,0.08,0.24,0.101c0.039,0,0.08,0.02,0.16,0.038c0.059,0,0.159,0,0.239,0
		c0.199,0,0.397-0.038,0.5-0.059c0.56-0.08,1.119-0.281,1.601-0.541c-0.021,0.021-0.121,0.079-0.222,0.1
		c-0.118,0.062-0.198,0.103-0.198,0.103c0.141-0.062,0.34-0.141,0.52-0.24c0.18-0.102,0.34-0.221,0.381-0.262
		c-0.1,0.08-0.221,0.182-0.381,0.281c0.16-0.08,0.34-0.24,0.6-0.42c0.141-0.101,0.24-0.222,0.32-0.32
		c0.102-0.101,0.201-0.18,0.26-0.24c-0.18,0.18-0.359,0.4-0.639,0.619c-0.221,0.182-0.48,0.361-0.74,0.502
		c-0.26,0.119-0.58,0.238-0.84,0.359c-0.301,0.1-0.621,0.141-0.881,0.18c-0.061,0-0.16,0.02-0.221,0.02c-0.021,0-0.06,0-0.08,0
		s-0.021,0.021-0.039,0.021c-0.062,0-0.08,0-0.121-0.021c-0.16,0-0.299-0.039-0.439-0.08c-0.119-0.059-0.26-0.18-0.34-0.299
		c-0.121-0.08-0.24-0.201-0.301-0.34c-0.139-0.301-0.24-0.621-0.32-0.941c-0.04-0.359-0.1-0.68-0.08-1.02
		c-0.02,0.119-0.039,0.42,0.04,0.801c0,0.199,0.062,0.359,0.12,0.559c0.061,0.183,0.121,0.381,0.221,0.541
		c0.02,0.08,0.061,0.199,0.159,0.301c0.08,0.119,0.222,0.261,0.382,0.359c0.1,0.039,0.198,0.08,0.26,0.119
		c0.119,0.021,0.24,0.041,0.34,0.041c0.061,0,0.119,0,0.18,0c0.039,0,0.061,0,0.08,0c0.02-0.02,0.061-0.02,0.1-0.02
		c0.08-0.021,0.201-0.021,0.301-0.041c0.32-0.062,0.699-0.141,1.021-0.32c0.361-0.119,0.701-0.299,1-0.539
		c0.361-0.26,0.66-0.541,0.92-0.82c0.281-0.34,0.5-0.66,0.66-0.961c0.062-0.18,0.142-0.34,0.201-0.5c0.039-0.1,0.039-0.18,0.08-0.26
		c0-0.1,0-0.16-0.021-0.24c0.021,0.1,0.021,0.16,0.021,0.24C34.842,14.564,34.82,14.644,34.82,14.724z M31.561,12.503
		c0-0.101,0-0.24,0.039-0.4c0.021-0.16,0.021-0.32,0.062-0.52c0.062-0.32,0.1-0.681,0.18-0.961c-0.08,0.34-0.139,0.641-0.198,0.94
		C31.621,11.904,31.561,12.203,31.561,12.503z M31.561,12.884c0,0.1,0.021,0.219,0.062,0.359c0,0.159,0.021,0.278,0.08,0.399
		c0.021,0.119,0.1,0.198,0.18,0.26c0.039,0.101,0.119,0.16,0.181,0.199c-0.121-0.101-0.181-0.199-0.261-0.278
		c-0.079-0.08-0.1-0.181-0.141-0.302c-0.021-0.101-0.021-0.219-0.062-0.34C31.6,13.083,31.561,12.964,31.561,12.884z M32.76,2.381
		l-0.039-0.02h0.021C32.74,2.361,32.76,2.361,32.76,2.381z M34.922,1.521c0.078,0.08,0.18,0.181,0.199,0.261c0,0,0,0,0.02,0.02
		v0.021h0.021l-0.021,0.04c0,0,0,0,0,0.02v-0.02l0.021-0.04h-0.021V1.801c-0.02-0.04-0.061-0.12-0.16-0.18
		c-0.039-0.101-0.139-0.16-0.18-0.2C34.762,1.401,34.842,1.461,34.922,1.521z"/>
	<path d="M39.98,8.042c0,0-0.14,0.261-0.398,0.681c-0.041,0.08-0.08,0.18-0.141,0.26c-0.16,0.32-0.34,0.66-0.541,0.96
		c-0.4,0.641-0.82,1.279-1.32,1.801c-0.039,0.06,0.08-0.061,0.08-0.08c-0.02,0.039-0.08,0.101-0.139,0.18
		c-0.062,0.062-0.121,0.101-0.142,0.142c0.062-0.062,0.142-0.142,0.222-0.239c0.078-0.08,0.139-0.16,0.198-0.24
		c-0.1,0.141-0.221,0.299-0.399,0.459c-0.08,0.102-0.18,0.201-0.301,0.301c-0.101,0.1-0.22,0.199-0.379,0.301
		c0.079-0.061,0.221-0.141,0.358-0.26c0.121-0.102,0.28-0.24,0.381-0.342c0.021-0.021,0,0.021-0.041,0.08
		c-0.039,0.061-0.101,0.141-0.119,0.16c-0.18,0.16-0.319,0.28-0.479,0.399c-0.16,0.121-0.34,0.201-0.521,0.301h-0.021
		c-0.102,0.039-0.44,0.16-0.86,0.08c-0.039,0-0.08,0-0.08,0c-0.141-0.041-0.299-0.101-0.459-0.18
		c-0.141-0.08-0.28-0.183-0.399-0.302c-0.121-0.1-0.24-0.239-0.34-0.381c-0.08-0.16-0.142-0.319-0.201-0.459
		c-0.039-0.16-0.08-0.301-0.101-0.461c-0.062-0.32-0.062-0.6-0.062-0.899c0-0.14,0.021-0.32,0.041-0.46
		c0.021-0.14,0.039-0.28,0.06-0.419c0.041-0.301,0.103-0.581,0.183-0.841c0.16-0.58,0.379-1.14,0.698-1.62
		c0.142-0.26,0.341-0.479,0.541-0.7c0.16-0.24,0.38-0.439,0.64-0.6c0.061-0.04,0.121-0.061,0.182-0.101
		c0.059-0.04,0.119-0.08,0.18-0.12c0.139-0.06,0.279-0.12,0.42-0.18c0.141-0.02,0.301-0.06,0.439-0.06
		c0.061-0.021,0.16-0.021,0.24-0.021c0.02,0,0.041,0,0.041,0h0.039c0,0,0.02,0,0,0h0.02h0.021c0.039,0.021,0.059,0.021,0.1,0.021
		c0.16,0.04,0.279,0.06,0.42,0.119c0.16,0.061,0.279,0.12,0.4,0.2c0.1,0.08,0.219,0.16,0.319,0.261c0.119,0.1,0.22,0.22,0.3,0.359
		c0.08,0.141,0.141,0.28,0.18,0.42c0.021,0.08,0.041,0.141,0.061,0.221c0,0.04,0,0.06,0,0.12c0,0.02,0,0.04,0,0.06
		c0,0.021,0,0.04,0,0.061v0.04c0,0.02,0,0.04,0,0.06c0,0.04,0,0.08,0,0.1c-0.02,0.101-0.039,0.16-0.061,0.24
		c-0.039,0.141-0.1,0.261-0.18,0.381c-0.14,0.239-0.34,0.46-0.521,0.62c-0.16,0.18-0.358,0.319-0.58,0.479
		c-0.08,0.021-0.142,0.061-0.221,0.12l-0.06,0.02l-0.02,0.02h-0.02v0.02H37.62c-0.041,0-0.062,0.02-0.101,0.039
		c-0.16,0.08-0.319,0.141-0.479,0.182c-0.261,0.119-0.562,0.219-0.84,0.299c0,0.021,0,0.061-0.021,0.102c0,0.078,0,0.139,0,0.219
		c-0.021,0.16-0.021,0.301-0.021,0.44s0,0.279,0.021,0.421c0.021,0.139,0.041,0.26,0.061,0.397c0.041,0.062,0.061,0.159,0.1,0.2
		c0.021,0.08,0.061,0.142,0.121,0.181c0.059,0.062,0.119,0.08,0.18,0.101c0.062,0.02,0.142,0.02,0.199,0
		c0.061-0.021,0.121-0.06,0.182-0.08c0.06-0.039,0.119-0.08,0.181-0.119c0.021-0.021,0.039-0.041,0.059-0.041
		c-0.059,0.041-0.1,0.08-0.139,0.102c-0.062,0.059-0.16,0.158-0.261,0.219c0,0,0,0,0,0.021c-0.079,0-0.141,0.021-0.221,0
		c-0.061-0.021-0.1-0.039-0.18-0.06c0.08,0.039,0.139,0.06,0.199,0.06c0.061,0.021,0.141,0,0.201,0c0,0-0.021,0-0.021,0.021
		c0-0.021,0.021-0.021,0.041-0.021c0.1-0.039,0.24-0.119,0.48-0.3c-0.041,0.039-0.062,0.062-0.121,0.062
		c-0.061,0.06-0.119,0.101-0.18,0.14c-0.062,0.041-0.119,0.061-0.199,0.1c0-0.02,0-0.02,0-0.02c0.08-0.021,0.16-0.039,0.219-0.08
		c0.061-0.06,0.141-0.101,0.221-0.14c0.02-0.021,0.061-0.062,0.08-0.08c0.02-0.021,0.039-0.041,0.08-0.079c0,0,0.02,0,0.039-0.021
		c0.141-0.16,0.301-0.34,0.441-0.5c-0.08,0.061-0.183,0.18-0.121,0.121c-0.119,0.119-0.16,0.18-0.199,0.219
		c-0.041,0.021-0.061,0.041-0.121,0.102c0-0.021,0.061-0.102,0.141-0.16c0.039-0.061,0.101-0.121,0.142-0.18
		c0.1-0.102,0.18-0.182,0.239-0.281c0.261-0.24,0.42-0.5,0.619-0.76c0.34-0.5,0.74-1.121,1.201-1.901h0.139V8.042z M35.5,12.804
		c-0.02,0-0.039,0-0.061,0c-0.039-0.021-0.08-0.021-0.101-0.041c-0.118-0.039-0.26-0.1-0.379-0.141
		c0.039,0.021,0.14,0.08,0.279,0.141c0.079,0.02,0.141,0.041,0.221,0.041C35.48,12.804,35.5,12.804,35.5,12.804z M39.541,8.803
		c-0.779,1.28-2.42,3.8-3.762,3.86c-0.021,0-0.039,0-0.078,0c-0.201-0.02-0.361-0.041-0.541-0.121c0.08,0.041,0.18,0.08,0.26,0.08
		c0.1,0.041,0.221,0.062,0.359,0.062C35.9,12.664,36,12.645,36.1,12.623c0.041,0,0.121-0.039,0.221-0.08
		c0.1-0.039,0.221-0.1,0.32-0.16c0.221-0.139,0.399-0.317,0.479-0.379c-0.021,0.021-0.062,0.062-0.101,0.119
		c-0.041,0.041-0.121,0.121-0.201,0.183c0.062-0.041,0.142-0.103,0.222-0.183c0.06-0.08,0.14-0.139,0.181-0.199
		c0.038-0.02,0.18-0.141,0.278-0.239c0.103-0.119,0.222-0.24,0.26-0.302c0.343-0.358,0.621-0.739,0.843-1.1
		c0,0.021-0.062,0.08-0.103,0.16c-0.021,0.039-0.06,0.08-0.06,0.08c0,0.02-0.021,0.039-0.021,0.039
		c0.062-0.08,0.142-0.199,0.24-0.34c0.08-0.139,0.159-0.26,0.2-0.299c-0.061,0.059-0.12,0.199-0.2,0.299
		c0.062-0.08,0.2-0.279,0.301-0.459c0.119-0.18,0.222-0.361,0.301-0.48c-0.159,0.279-0.36,0.599-0.579,0.939
		c-0.222,0.34-0.441,0.682-0.722,1.021c-0.142,0.159-0.28,0.319-0.42,0.5c-0.16,0.18-0.34,0.319-0.521,0.479
		c-0.16,0.157-0.342,0.278-0.561,0.397c-0.121,0.041-0.221,0.103-0.32,0.142c0.1-0.039,0.199-0.08,0.299-0.142
		c0.08-0.02,0.183-0.059,0.281-0.139c0.119-0.061,0.24-0.16,0.359-0.26c0.26-0.24,0.541-0.521,0.781-0.82
		c0.358-0.42,0.68-0.922,1.02-1.441C39.121,9.562,39.361,9.142,39.541,8.803z M36.48,8.022c0.039,0,0.061-0.021,0.1-0.021
		c0.141-0.02,0.301-0.04,0.441-0.08c0.1-0.02,0.219-0.04,0.34-0.079c0.119-0.061,0.219-0.101,0.318-0.141
		c0.079-0.06,0.159-0.12,0.221-0.16c0.061-0.06,0.1-0.14,0.141-0.18c0.061-0.08,0.08-0.16,0.1-0.22c0-0.021,0-0.04,0-0.04
		c0-0.021,0.021-0.04,0.021-0.04c0-0.021,0,0,0,0c0-0.04,0-0.101,0-0.101c0,0.021,0,0.021,0,0.04c0,0.021,0-0.04,0-0.04
		c0,0.021,0,0.04,0,0.061c0-0.021,0-0.04,0-0.061V6.94c0,0,0.021-0.021,0.021-0.04c0,0,0,0,0,0.02c0,0,0-0.02,0-0.04
		c0,0.021,0-0.02,0-0.04c0,0,0,0,0,0.021c0,0,0,0,0,0.02v-0.02c0,0,0,0,0-0.021c0-0.02,0,0,0,0.04c0-0.02,0-0.04,0-0.04
		c0-0.04-0.021-0.08-0.041-0.12C38,6.241,37.441,6.42,36.941,6.861c0,0,0.039-0.021,0.06-0.021c0.041-0.04,0.101-0.08,0.142-0.12
		c0.02,0,0.061-0.04,0.1-0.04c0.061-0.04,0.1-0.06,0.121-0.06c0,0.02-0.021,0.04-0.062,0.06c0.021,0,0.039-0.02,0.039-0.04
		c0.021,0,0.041-0.02,0.041-0.02c0.021-0.021,0.039-0.021,0.08-0.04c0.021-0.021,0.039-0.04,0.062-0.04
		c0.08-0.04,0.158-0.06,0.237-0.06h-0.059c0.021,0,0.059,0,0.08,0c0.02,0,0.059,0,0.059,0H37.82c-0.02,0-0.02,0-0.038,0
		c0.02,0,0.059,0,0.1,0c0.021,0.02,0.062,0.02,0.08,0.02c-0.021,0-0.062,0-0.101-0.02c-0.041,0-0.079,0-0.12,0.02
		c-0.08,0-0.16,0.04-0.24,0.1c-0.08,0.061-0.14,0.12-0.24,0.181c-0.059,0.06-0.139,0.14-0.198,0.2c0.02,0,0.039-0.021,0.08-0.061
		c0.039-0.06,0.08-0.08,0.118-0.12c0.062-0.02,0.183-0.12,0.281-0.2c0.101-0.06,0.199-0.1,0.299-0.1c0.021,0,0.041,0,0.062,0
		c0.02,0,0.02,0,0.041,0c0,0,0.02,0.021,0.039,0.021c0.02,0.02,0.061,0.06,0.1,0.1c0.021,0.04,0.041,0.08,0.041,0.1
		c-0.02-0.04-0.041-0.12-0.121-0.16c-0.039-0.06-0.1-0.06-0.16-0.06c-0.059,0-0.119,0.021-0.18,0.04
		c-0.059,0.04-0.119,0.08-0.18,0.12c0,0.02,0.02,0,0.02,0c0,0.02-0.039,0.02-0.059,0.04c0.039-0.021,0.08-0.04,0.1-0.061
		c-0.041,0.04-0.1,0.08-0.201,0.181C37.383,6.8,37.443,6.76,37.482,6.72c0.021,0.021-0.02,0.061-0.02,0.08
		c-0.041,0.04-0.08,0.101-0.121,0.16c-0.08,0.08-0.16,0.181-0.24,0.28c-0.078,0.08-0.158,0.16-0.219,0.26
		c-0.08,0.08-0.141,0.16-0.221,0.24C36.6,7.843,36.541,7.922,36.48,8.022z M36.701,8.223c-0.021-0.021-0.08,0-0.102,0
		c-0.021,0.02,0.061,0,0.08,0C36.68,8.223,36.68,8.223,36.701,8.223z M38,7.502c0,0.021-0.02,0.04-0.039,0.04
		c0,0.021-0.02,0.04-0.041,0.061c-0.02,0.04-0.059,0.08-0.1,0.1C37.9,7.643,37.961,7.563,38,7.502z M38.141,7.242
		c0,0.02-0.02,0.02-0.02,0.04c0,0.02,0,0.02,0,0.04c-0.02,0.02-0.02,0.04-0.02,0.04c-0.021,0.02-0.062,0.06-0.08,0.1
		c0.02-0.02,0.02-0.04,0.059-0.06c0-0.021,0-0.021,0-0.04c0.021,0,0.021,0,0.021,0C38.121,7.322,38.121,7.262,38.141,7.242z
		 M39.102,6.862c0.021,0.06,0.021,0.14,0.021,0.18c0,0.061,0,0.101-0.021,0.141c0,0,0,0,0,0.02c0,0,0.021-0.1,0.021-0.2
		s-0.021-0.22-0.041-0.3C39.08,6.682,39.102,6.762,39.102,6.862z"/>
	<path d="M41.82,11.763l-0.021,0.02c0.021,0.1,0.062,0.18,0.119,0.26c0.062,0.08,0.121,0.142,0.201,0.183
		c0.06,0.039,0.119,0.08,0.198,0.101c0.062,0.02,0.142,0.02,0.201,0.02c0.039,0,0.101,0,0.119,0c-0.041,0.02-0.119,0.02-0.221,0.02
		c-0.039,0-0.1-0.02-0.18-0.039c-0.039-0.02-0.119-0.061-0.199-0.1c0.059,0.039,0.119,0.059,0.16,0.1
		c0.08,0.021,0.16,0.039,0.24,0.039c0.158,0.02,0.278-0.02,0.358-0.039c0.039,0,0.119-0.041,0.222-0.08
		c0.059-0.041,0.18-0.08,0.278-0.141c0.16-0.141,0.341-0.279,0.461-0.359c0.238-0.221,0.459-0.5,0.66-0.76
		c0.22-0.281,0.358-0.541,0.539-0.801c-0.021,0.02-0.08,0.119-0.142,0.221c-0.039,0.059-0.08,0.1-0.1,0.139
		c-0.02,0.041-0.02,0.062-0.02,0.08c0.08-0.16,0.221-0.358,0.34-0.539c0.1-0.201,0.18-0.38,0.221-0.44
		c-0.061,0.121-0.141,0.28-0.201,0.44c0.041-0.102,0.08-0.239,0.18-0.399c0.08-0.141,0.16-0.301,0.24-0.441
		c-0.08,0.16-0.18,0.342-0.26,0.521c-0.1,0.219-0.219,0.438-0.34,0.618c-0.141,0.222-0.26,0.421-0.42,0.642
		c-0.16,0.199-0.301,0.399-0.5,0.58c-0.18,0.199-0.381,0.358-0.6,0.521c-0.121,0.08-0.24,0.16-0.361,0.221
		c-0.139,0.061-0.279,0.08-0.4,0.08c-0.1,0.02-0.18,0.02-0.238,0c-0.08-0.02-0.159-0.02-0.2-0.061c-0.08-0.021-0.16-0.08-0.22-0.119
		c-0.061-0.062-0.102-0.121-0.141-0.201c-0.02-0.039-0.061-0.08-0.08-0.139c0,0,0,0-0.02,0.02c0.039,0.039,0.059,0.08,0.119,0.16
		c0.02,0.08,0.1,0.18,0.221,0.24c0.1,0.08,0.199,0.118,0.34,0.118c0.141,0.021,0.26,0,0.42-0.038c0.141,0,0.26-0.062,0.381-0.142
		c0.238-0.142,0.459-0.302,0.68-0.5c0.359-0.341,0.66-0.761,0.92-1.222c0.302-0.42,0.521-0.878,0.722-1.3c0,0,0,0,0.021,0
		c-0.261,0.521-0.541,1.061-0.881,1.582c-0.181,0.26-0.38,0.5-0.58,0.719c-0.22,0.24-0.459,0.441-0.699,0.621
		c-0.062,0.039-0.021,0.021,0.02,0c0.039-0.02,0.119-0.061,0.119-0.08c-0.08,0.062-0.16,0.119-0.279,0.199
		c-0.061,0.021-0.119,0.062-0.16,0.08c-0.039,0.02-0.08,0.041-0.119,0.041c0.14-0.041,0.3-0.121,0.439-0.221
		c0.141-0.1,0.24-0.199,0.359-0.279c-0.1,0.08-0.219,0.16-0.32,0.26c-0.119,0.08-0.26,0.181-0.42,0.24
		c-0.08,0.02-0.199,0.059-0.299,0.08c-0.102,0.02-0.201,0.039-0.34,0.02c-0.121-0.02-0.24-0.061-0.361-0.121
		c-0.119-0.077-0.199-0.198-0.279-0.34c0.039,0.08,0.08,0.183,0.18,0.263c0.062,0.06,0.119,0.101,0.181,0.118
		c0.041,0.021,0.101,0.062,0.18,0.08c0.16,0.039,0.32,0.039,0.441,0c0.139-0.02,0.26-0.061,0.34-0.1c0.062,0,0,0.02-0.101,0.08
		c-0.041,0.02-0.102,0.039-0.16,0.059c-0.061,0.021-0.102,0.021-0.12,0.041c-0.08,0-0.181,0.021-0.279,0c-0.1,0-0.2-0.02-0.26-0.061
		c-0.103-0.039-0.181-0.08-0.24-0.119c-0.08-0.061-0.121-0.141-0.18-0.201c-0.041-0.08-0.103-0.139-0.121-0.219
		c-0.08,0.119-0.181,0.24-0.299,0.359c-0.062,0.061-0.16,0.141-0.263,0.221c-0.059,0.08-0.16,0.16-0.278,0.219
		c-0.08,0.062-0.181,0.121-0.32,0.182c-0.062,0.021-0.142,0.039-0.221,0.06c-0.06,0.021-0.14,0.021-0.22,0H40
		c-0.02,0-0.039,0-0.039,0h0.02c-0.1,0-0.221-0.021-0.319-0.06c-0.101-0.041-0.201-0.102-0.302-0.159
		c-0.059-0.103-0.139-0.222-0.198-0.32c-0.041-0.103-0.08-0.221-0.121-0.319c-0.06-0.201-0.101-0.42-0.119-0.642
		c-0.08-0.399-0.062-0.801-0.041-1.198c0.021-0.4,0.041-0.802,0.103-1.183c0.039-0.4,0.119-0.78,0.16-1.16
		c0-0.101,0.02-0.2,0.059-0.3V7.542l0.021-0.02c-0.021,0-0.021,0,0,0v-0.02v-0.04l0.038-0.08c0.041-0.22,0.101-0.399,0.142-0.6
		c0.08-0.2,0.16-0.4,0.24-0.58c0.1-0.181,0.219-0.38,0.358-0.54c0.08-0.101,0.16-0.181,0.278-0.261
		c0.08-0.06,0.183-0.119,0.302-0.18c0.062-0.02,0.142-0.04,0.198-0.04c0.021,0,0.062-0.02,0.08-0.02c0.021,0,0.021,0,0.041,0h0.021
		h0.021h0.021c0.14,0,0.261,0.04,0.379,0.1c0.08,0.04,0.142,0.08,0.201,0.12c0.08,0.04,0.08,0.1,0.119,0.16
		c0.08,0.12,0.121,0.26,0.141,0.36c0.039,0.119,0.039,0.239,0.039,0.359c0,0.04,0,0.101,0,0.16C41.82,6.441,41.82,6.46,41.82,6.5
		l-0.02,0.04v0.02v0.021V6.562c0,0.021,0,0.021,0,0.04v-0.02c-0.041,0.4-0.121,0.78-0.201,1.16c-0.08,0.38-0.18,0.74-0.279,1.141
		c-0.038,0.16-0.1,0.359-0.141,0.541c-0.059,0.18-0.119,0.359-0.139,0.539c-0.061,0.181-0.102,0.341-0.121,0.5
		c0,0.101,0.02,0.181,0.041,0.222c0,0.021,0,0.039,0.02,0.039c-0.02,0-0.02,0-0.02,0c0,0.021-0.021,0.021-0.021,0.021
		c0.021,0,0.041,0,0.041,0v0.021v-0.021c0,0,0,0,0-0.021c0,0,0.021,0,0.039-0.021c0.041-0.02,0.08-0.061,0.103-0.119
		c0.039-0.061,0.101-0.121,0.16-0.201c0.038-0.079,0.059-0.159,0.1-0.219c0.039-0.08,0.08-0.16,0.101-0.262c0-0.039,0-0.08,0-0.119
		l0.039-0.039V9.722c0,0,0-0.02,0,0v-0.02l0.021-0.039c0.039-0.182,0.101-0.361,0.181-0.541c0.039-0.1,0.079-0.2,0.159-0.28
		c0.062-0.101,0.14-0.181,0.24-0.261s0.198-0.119,0.319-0.119c0.021,0,0.021,0,0.039,0c0.02,0,0.021,0,0.041,0h0.021h0.021
		c0.02,0,0.039,0,0.039,0c0.061,0,0.141,0,0.182,0c0.059,0.02,0.139,0.06,0.18,0.119c0.061,0.04,0.1,0.101,0.141,0.16
		c0.021,0.061,0.021,0.12,0.021,0.16c0.021,0.04,0.039,0.101,0.039,0.16c0.021,0.099,0.021,0.201,0.021,0.281
		c-0.021,0.1-0.041,0.18-0.041,0.279c-0.02,0.141-0.02,0.32-0.039,0.48c-0.021,0.08-0.021,0.141-0.021,0.199
		c0,0.08-0.021,0.16,0,0.221c0,0.02,0.021,0.061,0.041,0.08c0,0.02,0.021,0.039,0.021,0.039c0.02,0,0.02,0,0.041,0.021h0.02h0.02
		h0.021c0.041,0,0.08-0.021,0.142-0.041c0.061-0.021,0.079-0.08,0.118-0.142c0.142-0.101,0.24-0.22,0.343-0.34
		c0.1-0.14,0.18-0.279,0.278-0.398c0.142-0.24,0.279-0.48,0.42-0.741c-0.18-0.101-0.278-0.24-0.399-0.421
		c-0.119-0.18-0.222-0.42-0.26-0.62c-0.039-0.199-0.08-0.38-0.062-0.56c-0.021-0.101-0.021-0.2,0-0.28
		c0.021-0.1,0.041-0.2,0.062-0.3c0.061-0.16,0.141-0.34,0.278-0.48c0.062-0.08,0.121-0.14,0.201-0.2c0.021,0,0-0.02,0.039-0.04
		l0.04-0.02V6.062c0.039-0.02,0.08-0.04,0.119-0.06c0.08-0.04,0.16-0.08,0.24-0.12c0.041-0.02,0.062-0.02,0.101-0.04
		c0.04-0.02,0.079-0.02,0.12-0.02c0.16-0.021,0.3-0.04,0.459-0.04c0.142,0.02,0.281,0.04,0.4,0.1c0.08,0.04,0.141,0.1,0.18,0.14
		c0.041,0.061,0.062,0.12,0.103,0.181c0.08,0.14,0.08,0.3,0.101,0.439c-0.021,0.141,0,0.301-0.021,0.44
		c-0.041,0.12-0.062,0.26-0.121,0.4c-0.039,0.12-0.062,0.26-0.119,0.399c-0.041,0.141-0.08,0.24-0.12,0.32
		c-0.021,0.08-0.039,0.141-0.101,0.24c-0.039,0.1,0.062-0.06,0.039-0.04c-0.078,0.14-0.14,0.3-0.22,0.42
		c0.142,0.021,0.24,0.021,0.261,0.021c-0.062,0-0.101,0-0.142,0c-0.039,0-0.059,0-0.1,0c0.02,0,0.061,0,0.1,0c0.041,0,0.08,0,0.08,0
		c-0.039,0-0.1,0-0.18,0c0.08,0,0.141,0,0.199,0c0.041,0,0.102,0,0.141-0.021c0.041,0,0.1-0.02,0.18-0.04
		c0.021,0-0.039,0.021-0.1,0.021c0.041,0,0.141-0.021,0.26-0.08c-0.059,0.04,0.103-0.04,0.221-0.101c-0.02,0-0.041,0.021-0.08,0.04
		c-0.038,0.021-0.061,0.04-0.079,0.04s0,0,0.021-0.02c0.021,0,0.061-0.021,0.079-0.04c0.041-0.021,0.08-0.04,0.101-0.061
		c0.021,0,0.041-0.02,0.041-0.02c0.08-0.04,0.039-0.021-0.041,0.02c-0.06,0.061-0.158,0.101-0.199,0.141
		c0.02-0.021,0.08-0.061,0.141-0.101c0.059-0.02,0.119-0.06,0.139-0.08c0.021-0.02,0.021-0.02,0.021-0.02
		c0.34-0.2,0.559-0.48,0.559-0.48h0.183c-0.642,0.78-1.343,1.1-1.941,1.1c-0.02,0.02-0.038,0.061-0.038,0.08L45.4,9.242
		C43.961,12.283,42.201,12.943,41.82,11.763z M40.561,12.503c0.101-0.08,0.24-0.16,0.379-0.301c0.121-0.14,0.281-0.279,0.441-0.439
		c0.039-0.061,0.039-0.1,0.08-0.141v-0.021c-0.26,0.34-0.641,0.778-1.041,0.961C40.461,12.542,40.5,12.523,40.561,12.503z
		 M41.5,11.802c-0.02,0-0.02,0-0.02-0.02c-0.062,0.079-0.08,0.159-0.142,0.2c-0.08,0.119-0.198,0.22-0.319,0.32
		c-0.08,0.1-0.22,0.18-0.34,0.278c0.061-0.02,0.12-0.08,0.239-0.16c0.08-0.061,0.181-0.159,0.281-0.278
		C41.301,12.042,41.4,11.943,41.5,11.802z M41.48,10.363c0.061-0.141,0.141-0.301,0.18-0.4c0,0,0,0,0-0.039
		c0,0.021-0.039,0.14-0.1,0.279c-0.041,0.062-0.062,0.121-0.101,0.201c-0.021,0.059-0.062,0.119-0.08,0.158
		C41.381,10.603,41.42,10.503,41.48,10.363z M44.58,6.102c0.061-0.04,0.141-0.08,0.201-0.12c0.061-0.02,0.141-0.06,0.199-0.079
		c0.08-0.021,0.16-0.021,0.221-0.04c-0.041,0-0.1,0.02-0.16,0.04c-0.08,0-0.141,0.02-0.199,0.06c-0.08,0.02-0.141,0.06-0.221,0.12
		c-0.1,0.04-0.16,0.08-0.199,0.14c-0.141,0.101-0.281,0.261-0.361,0.4c-0.039,0.08-0.039,0.14-0.08,0.22
		c0,0.061-0.02,0.101-0.02,0.16c0-0.14,0.061-0.28,0.119-0.38c0.061-0.16,0.182-0.3,0.32-0.38c0.021-0.021,0.041-0.061,0.08-0.08
		C44.502,6.142,44.521,6.122,44.58,6.102z M44.721,8.103c0-0.021,0-0.04,0-0.08c0-0.021-0.02-0.04-0.02-0.061
		C44.701,8.002,44.721,8.063,44.721,8.103z M44.762,8.282c-0.021-0.02-0.021-0.06-0.041-0.08c0-0.02,0-0.04-0.02-0.06
		c0.02,0.02,0.02,0.06,0.02,0.08C44.74,8.242,44.74,8.263,44.762,8.282z M45.16,7.143V7.122c0,0.021-0.02,0-0.02,0L45.12,7.143
		c0,0,0,0.02-0.021,0.06c-0.02,0.04-0.02,0.08-0.041,0.12v0.02c-0.039,0.04-0.08,0.101-0.119,0.141c-0.061,0.1-0.1,0.26-0.141,0.399
		c-0.02,0.12-0.02,0.221-0.039,0.301c0.02,0.06,0.02,0.1,0.039,0.14c0,0.021,0.041,0.04,0.041,0.061V8.362c0,0.04,0,0.08,0,0.08
		c0.02-0.02,0.02-0.02,0-0.04v0.04c0.02-0.02,0-0.02,0-0.04c0,0.04,0,0.04,0.02,0.061h-0.02h0.02c-0.02,0,0,0,0,0.02v-0.02v0.02
		h0.021c0,0.02-0.021,0-0.021-0.02c0,0.02,0,0.02,0.021,0.039L44.9,8.523c0-0.04,0-0.06,0.041-0.1c0-0.021,0-0.04,0-0.04
		c0-0.021,0-0.021,0-0.021l-0.021-0.02c0-0.021,0.021-0.061,0.021-0.08c0.02-0.101,0.061-0.2,0.08-0.261c0-0.02-0.021,0-0.021,0
		c0-0.02,0-0.04,0-0.06c0,0.02,0,0.06,0,0.08c0-0.04,0-0.101,0.021-0.18c-0.021,0.02-0.041,0.06-0.062,0.1
		c-0.021,0-0.021-0.04-0.039-0.061c0.021-0.06,0-0.1,0.039-0.14c0-0.04,0-0.08,0-0.14c0.021,0.02,0,0,0,0V7.582c0,0,0,0,0.021-0.02
		c0-0.021,0-0.04,0-0.061c0.021-0.02,0.021-0.04,0.021-0.06L45.04,7.42c0-0.02-0.021,0,0,0c0-0.04,0-0.06,0.021-0.08V7.32
		c0.021-0.021,0.021-0.04,0.041-0.061c0.02,0,0,0,0,0l0.02-0.02c0.02-0.021,0.02-0.021,0.039-0.04c0.021-0.02,0.041-0.04,0.061-0.06
		c-0.02,0-0.02,0-0.02,0S45.182,7.143,45.16,7.143z M45.221,7.843c-0.039,0.02-0.039,0.119-0.061,0.14
		c-0.02-0.021-0.02-0.021,0-0.061c-0.02,0.021-0.02,0.061-0.02,0.061c-0.021,0.02-0.039,0.06-0.039,0.08
		c-0.041,0.06-0.08,0.12-0.101,0.18c0-0.02,0.021-0.06,0.021-0.06c-0.021,0.04-0.041,0.08-0.041,0.1c0-0.02,0-0.02,0-0.04
		c0,0.021-0.021,0.101-0.021,0.141c0-0.101,0.021-0.24,0.08-0.36c0.021-0.061,0.041-0.12,0.062-0.18c0-0.04,0.02-0.061,0.039-0.101
		c0.02-0.02,0.02-0.06,0.041-0.08c-0.021,0-0.021,0-0.021,0.021h-0.02c0,0,0,0,0,0.02c0,0,0,0,0,0.021c0,0.04-0.039,0.08-0.039,0.1
		c-0.041,0.04-0.062,0.14-0.08,0.22c-0.021,0.061-0.062,0.141-0.08,0.221c0,0.02,0,0.04,0,0.06c0,0.021,0,0.04,0,0.061
		c0,0.04-0.021,0.06-0.021,0.08C44.9,8.482,44.9,8.502,44.9,8.522s0.021,0.02,0.021,0.02c0.021-0.06,0.06-0.079,0.101-0.14
		c0.061-0.2,0.16-0.4,0.239-0.62c0.021-0.02,0.039-0.04,0.06-0.08C45.281,7.702,45.24,7.782,45.221,7.843z M44.941,7.162v-0.02
		c0,0,0,0,0.02,0C44.961,7.143,44.941,7.143,44.941,7.162l-0.021,0.021C44.922,7.183,44.922,7.183,44.941,7.162z M45.602,5.862
		c0.062,0.02,0.101,0.02,0.181,0.06c0.061,0.02,0.118,0.06,0.18,0.1c0.062,0.061,0.101,0.12,0.121,0.181
		c0.039,0.06,0.06,0.12,0.08,0.2c0,0.08,0.021,0.14,0.021,0.22c0.02,0.08,0.02,0.12,0,0.2c0.02,0.14,0,0.26-0.021,0.34
		c0.039-0.18,0.021-0.34,0.039-0.48c-0.021-0.159-0.021-0.279-0.08-0.42c-0.039-0.1-0.101-0.2-0.199-0.28
		C45.801,5.922,45.701,5.882,45.602,5.862z M45.682,8.662c-0.02,0.061-0.061,0.12-0.08,0.16C45.621,8.782,45.662,8.723,45.682,8.662
		z M46.342,8.702c0,0.021-0.02,0.021-0.041,0.021C46.322,8.723,46.342,8.723,46.342,8.702z"/>
	<path d="M50.34,9.562c-0.24,0.541-0.541,1.061-0.84,1.521c-0.061,0.059,0.02-0.041,0.039-0.062c-0.02,0.021-0.061,0.101-0.1,0.16
		c-0.039,0.039-0.08,0.101-0.119,0.142c0.119-0.142,0.219-0.302,0.318-0.441c-0.08,0.121-0.16,0.26-0.279,0.42
		c-0.101,0.16-0.26,0.342-0.439,0.541c0.059-0.041,0.139-0.141,0.219-0.24c0.121-0.1,0.182-0.221,0.262-0.279
		c0.039-0.021,0,0.02-0.021,0.039c-0.021,0.061-0.06,0.141-0.08,0.141c-0.1,0.16-0.219,0.279-0.278,0.379
		c-0.121,0.121-0.201,0.24-0.32,0.32c-0.16,0.16-0.381,0.34-0.6,0.48c-0.062,0.041-0.142,0.061-0.181,0.08
		c-0.041,0.02-0.08,0.041-0.103,0.061l-0.059,0.02v0.021h-0.041c-0.061,0.02-0.119,0.04-0.18,0.061h-0.02h-0.021h-0.02
		c-0.021,0-0.06,0.02-0.08,0.02c-0.039,0-0.06,0-0.08,0c-0.101,0.021-0.219,0-0.299-0.059c-0.041,0-0.062,0-0.103-0.021
		c-0.021,0-0.021-0.02-0.039-0.02l-0.021-0.02c-0.02-0.021-0.02-0.021-0.041-0.041c-0.02-0.06-0.08-0.101-0.139-0.16
		c-0.041-0.119-0.121-0.26-0.141-0.398c-0.02-0.141-0.041-0.262-0.041-0.422c-0.039-0.26,0-0.52,0.021-0.76
		c0.02-0.26,0.059-0.5,0.118-0.76c0.062-0.24,0.101-0.48,0.142-0.722c0.039-0.1,0.061-0.219,0.1-0.359c0.02-0.1,0.061-0.2,0.1-0.32
		c0.101-0.46,0.222-0.921,0.34-1.381c0.021-0.04,0.021-0.1,0.021-0.16c0.02-0.06,0.059-0.12,0.059-0.159
		c0.041-0.141,0.08-0.261,0.121-0.36c0.08-0.24,0.16-0.46,0.279-0.7c0.061-0.12,0.1-0.22,0.18-0.32c0.062-0.12,0.142-0.22,0.24-0.32
		c0.1-0.08,0.201-0.16,0.301-0.22c0.142-0.04,0.24-0.06,0.359-0.06c0.041,0,0.1,0,0.141,0.02c0.039,0,0.062,0.021,0.08,0.021v0.02
		h0.021h0.021c0,0.021,0,0.021,0.021,0.021c0.059,0.02,0.118,0.06,0.159,0.1c0.06,0.04,0.08,0.1,0.14,0.14
		c0.062,0.12,0.101,0.261,0.121,0.381c0.039,0.119,0.039,0.26,0.06,0.359c0,0.261,0,0.48-0.021,0.721
		c-0.039,0.22-0.062,0.439-0.101,0.66c-0.061,0.26-0.119,0.52-0.16,0.78c-0.039,0.14-0.08,0.279-0.1,0.399
		c-0.02,0.061-0.061,0.141-0.061,0.221l-0.039,0.08l-0.021,0.061v0.02v0.02c0,0,0,0,0-0.02c0,0.02,0,0.02,0,0.02
		c-0.139,0.521-0.279,1.041-0.42,1.541c0,0.039,0,0.1-0.02,0.119h0.02c0.021-0.039,0.08-0.1,0.121-0.16
		c0.199-0.18,0.359-0.398,0.5-0.559c0.219-0.262,0.379-0.521,0.52-0.781c0.041-0.061,0.08-0.119,0.101-0.18
		c0.021-0.02,0.041-0.061,0.08-0.12c0.041-0.061-0.039,0.04-0.021,0.04c0.08-0.2,0.199-0.4,0.221-0.4
		c-0.021,0.06-0.04,0.06-0.079,0.16c-0.021,0.04,0.021,0,0.039-0.021c0.02-0.06,0.04-0.12,0.061-0.12
		c-0.021,0.08-0.061,0.141-0.12,0.261c0.061-0.12,0.079-0.16,0.12-0.221c0.021-0.06,0.062-0.1,0.101-0.22c0,0-0.021,0.02-0.021,0.06
		c0-0.02,0.039-0.06,0.08-0.159c-0.041,0.1,0.021-0.021,0.062-0.101c0,0.021-0.021,0.08-0.041,0.12l0.061-0.18
		c0.039-0.061,0,0.12-0.041,0.199c0.041-0.06,0.061-0.159,0.061-0.199c0.041-0.021,0.041-0.021,0.021,0
		c0.121-0.261,0.181-0.421,0.181-0.421h0.159c-1.219,3.321-2.459,4.301-3.141,4.602c0.061-0.021,0.141-0.061,0.262-0.121
		c0.101-0.059,0.199-0.1,0.26-0.18c0.119-0.061,0.181-0.141,0.24-0.221c0.039,0,0.101-0.039,0.14-0.1
		c0.061-0.062,0.141-0.119,0.221-0.199c0.119-0.142,0.221-0.301,0.279-0.34c-0.021,0.039-0.08,0.118-0.181,0.26
		c0.041-0.041,0.101-0.101,0.142-0.16c0.039-0.08,0.1-0.121,0.119-0.18c0.04-0.041,0.102-0.121,0.182-0.222
		c0.1-0.118,0.139-0.221,0.18-0.301c0.219-0.317,0.4-0.66,0.58-1c0,0.021-0.041,0.08-0.061,0.159
		c-0.041,0.062-0.08,0.101-0.08,0.121c0.061-0.08,0.119-0.2,0.199-0.339c0.04-0.102,0.102-0.201,0.12-0.24
		c-0.021,0.08-0.08,0.16-0.12,0.26c0.04-0.08,0.12-0.24,0.2-0.4c0.062-0.16,0.142-0.34,0.199-0.44c-0.14,0.299-0.279,0.661-0.438,1
		c-0.199,0.34-0.4,0.719-0.621,1.062c-0.238,0.358-0.521,0.698-0.779,1c-0.301,0.278-0.6,0.52-0.92,0.68
		c0.039,0,0.199-0.08,0.359-0.201c0.1-0.059,0.18-0.119,0.26-0.219c0.121-0.062,0.182-0.16,0.262-0.222
		c0.1-0.079,0.238-0.221,0.42-0.438c0.16-0.201,0.34-0.461,0.5-0.74c0.26-0.381,0.5-0.84,0.719-1.281
		C50.58,9.022,50.6,9.043,50.34,9.562z M48.42,4.001c0-0.079,0.02-0.18,0.02-0.26c0-0.06,0.021-0.1,0.021-0.14v-0.06v-0.04v-0.02
		h0.021v-0.04c0,0,0.021-0.021,0.021-0.04c0.021-0.08,0.021-0.16,0.06-0.22c0.021-0.101,0.08-0.16,0.102-0.24
		c0.08-0.16,0.139-0.3,0.26-0.42c0.1-0.12,0.199-0.261,0.34-0.341c0.119-0.08,0.24-0.14,0.379-0.159h0.021
		C49.701,2,49.742,2,49.801,2h0.021c0.08,0,0.18,0.021,0.26,0.061c0.1,0.039,0.199,0.1,0.279,0.199
		c0.08,0.08,0.141,0.181,0.18,0.301c0,0.08,0.041,0.16,0.061,0.22c0,0.02,0,0.04-0.02,0.06l0.02,0.021v0.02c0,0.04,0,0.08,0,0.101
		c0,0.16,0,0.34-0.039,0.5c-0.041,0.18-0.102,0.38-0.16,0.54c-0.061,0.14-0.141,0.26-0.221,0.36c-0.08,0.1-0.16,0.18-0.221,0.22
		c-0.1,0.06-0.18,0.1-0.24,0.12c-0.039,0.02-0.039,0.02-0.08,0.04c-0.02,0,0.021,0,0-0.021c-0.039,0.04-0.1,0.061-0.1,0.021
		c0,0,0,0,0.041-0.021c0-0.02-0.041,0.021-0.041,0c0-0.02,0.02-0.02,0.041-0.02c-0.041,0-0.041,0-0.102,0c0,0,0,0,0.021,0
		c0,0-0.021,0-0.041,0c0.021,0-0.021,0-0.039,0h0.021c0-0.021-0.039,0-0.039,0c-0.021,0,0.02-0.04,0.039-0.061
		c-0.021,0-0.039,0.021-0.039,0.021c-0.021,0-0.021,0-0.021,0c-0.02,0-0.039,0.02-0.08,0.04c-0.68,0.18-0.66-0.561-0.58-1.08
		c0,0-0.039,0.04-0.039,0.1c0,0.061-0.02,0.16-0.02,0.2c0,0.021,0,0.1-0.021,0.16c0,0.06,0.021,0.12,0,0.16
		c0-0.021-0.02-0.061-0.02-0.12c0,0.04,0,0.12,0,0.12c0,0.04,0.02,0.08,0.02,0.12c0.021,0.02,0.041,0.06,0.021,0.08
		c0.02,0.06,0.059,0.12,0.08,0.16c0.02,0.06,0.039,0.1,0.078,0.119c0,0-0.021,0-0.039-0.02c0,0-0.021-0.021-0.021,0
		c0.021,0,0.039,0.02,0.08,0.06c0.021,0.021,0.06,0.04,0.06,0.04c-0.021,0-0.039-0.02-0.08-0.04c0.041,0.04,0.08,0.061,0.102,0.08
		c0.039,0.021,0.08,0.021,0.119,0.021c-0.039,0-0.1,0-0.119,0c-0.061-0.021-0.08-0.061-0.141-0.101c-0.039-0.04-0.08-0.06-0.1-0.14
		c-0.041-0.06-0.08-0.1-0.101-0.18c-0.021-0.12-0.021-0.261-0.021-0.4s0.021-0.26,0.021-0.4c-0.021,0.021-0.021,0.08-0.021,0.141
		c-0.021,0.08,0,0.16,0,0.239c-0.021,0.04-0.021,0.101,0,0.2c0,0.08,0.021,0.181,0.021,0.301c0.039,0.06,0.06,0.14,0.119,0.199
		c0.061,0.061,0.1,0.12,0.159,0.141c0.08,0.02,0.119,0.04,0.181,0.04s0.101,0,0.16,0c0.041,0,0.1-0.021,0.12-0.021
		c-0.061,0.021-0.141,0.04-0.2,0.061c-0.08,0-0.181-0.021-0.261-0.061c-0.041-0.02-0.08-0.02-0.1-0.06
		c-0.041-0.04-0.08-0.08-0.1-0.12c-0.061-0.1-0.08-0.2-0.102-0.3c0-0.021-0.021,0.04-0.021,0.04c0.021-0.021,0-0.04,0-0.061
		c0-0.02-0.021-0.04-0.021-0.06c0.021,0.06,0.021,0.12,0.039,0.18c-0.02-0.04-0.02-0.1-0.039-0.16s-0.02-0.14-0.041-0.24
		c0,0.021,0,0.08,0,0.12c0,0.04,0,0.101,0,0.16c-0.02,0-0.039-0.06-0.059-0.08c0-0.06,0.02-0.1,0-0.16
		C48.42,4.102,48.398,4.062,48.42,4.001z M48.818,11.062c0.102-0.078,0.201-0.18,0.281-0.299
		C49.039,10.843,48.92,10.962,48.818,11.062z M49.219,5.642c0.021,0.04,0.041,0.08,0.061,0.12c0.021,0.04,0.041,0.061,0.062,0.08
		c0,0,0,0,0,0.04c0-0.02-0.021-0.08-0.08-0.16C49.24,5.682,49.24,5.662,49.219,5.642c-0.039-0.02-0.08-0.04-0.1-0.06
		S49.16,5.602,49.219,5.642z M49.24,10.603c0.08-0.08,0.16-0.199,0.26-0.32c-0.041,0.041-0.08,0.1-0.1,0.141
		c-0.021,0.021-0.021,0.021-0.021,0.021c0.08-0.079,0.16-0.18,0.201-0.301c0.039-0.039,0.039-0.039,0.059-0.06
		c0.041-0.102,0.08-0.16,0.141-0.24c-0.061,0.08-0.1,0.14-0.141,0.22c0-0.021,0-0.021-0.02,0c-0.02,0.041-0.061,0.103-0.1,0.183
		c0,0.02-0.021,0.02-0.021,0.039C49.4,10.404,49.34,10.503,49.24,10.603z M49.5,10.283c0-0.02,0.02-0.02,0.02-0.039
		c0.039-0.061,0.08-0.141,0.119-0.182c0,0,0,0,0,0.021c-0.059,0.039-0.059,0.08-0.1,0.139C49.52,10.244,49.52,10.263,49.5,10.283z
		 M49.74,4.502c0.059-0.04,0.1-0.061,0.139-0.101c0.021,0,0.061-0.02,0.08-0.06c-0.039,0.04-0.08,0.06-0.1,0.08
		C49.82,4.441,49.76,4.481,49.74,4.502z M49.98,4.281c0.02-0.021,0.078-0.04,0.1-0.1c0.039-0.04,0.059-0.08,0.1-0.141
		C50.119,4.142,50.059,4.241,49.98,4.281z M50.219,2.501c0.021,0.021,0.041,0.061,0.061,0.061c0,0-0.02-0.021-0.038-0.021
		c0-0.02-0.021-0.04-0.041-0.06C50.199,2.481,50.199,2.501,50.219,2.501z"/>
	<path d="M53.24,9.744c0,0.138,0.02,0.279-0.02,0.419c-0.021,0.039,0,0.021,0.02-0.021c0-0.021,0-0.06,0-0.06
		c0,0.039,0,0.101-0.02,0.199c0.02,0.061,0.02,0.141,0.02,0.199c0-0.119-0.02-0.199,0-0.318c0.039-0.121,0.02-0.221,0-0.301
		c0.039,0.16,0,0.359,0,0.561c-0.02,0.24-0.08,0.5-0.141,0.841c0.02-0.08,0.041-0.24,0.08-0.382c0.061-0.18,0.079-0.358,0.1-0.479
		c0-0.041,0,0,0.021,0.1c0,0.039-0.021,0.119-0.021,0.16c-0.039,0.219-0.1,0.379-0.1,0.56c-0.021,0.08-0.021,0.159-0.039,0.239
		l-0.041,0.08h-0.021v0.021v0.039c-0.021,0.041-0.041,0.08-0.041,0.1c-0.078,0.141-0.119,0.281-0.181,0.42
		c-0.1,0.16-0.18,0.32-0.239,0.461c-0.101,0.16-0.261,0.301-0.379,0.459c-0.041,0.041-0.101,0.08-0.121,0.103
		c0,0.021-0.021,0.021-0.021,0.039l-0.039,0.021l-0.021,0.021L52,13.244c-0.041,0.062-0.18,0.141-0.26,0.18
		c-0.08,0.021-0.16,0.041-0.24,0.062c-0.061,0.021-0.201,0.039-0.281,0.039c-0.18,0-0.34-0.06-0.479-0.119l-0.021-0.021
		c-0.08-0.079-0.199-0.159-0.318-0.239c-0.08-0.103-0.182-0.222-0.221-0.34c-0.061-0.142-0.16-0.302-0.16-0.44
		c-0.02-0.08,0-0.181,0.021-0.261c0-0.062,0-0.142,0.021-0.239c0.021-0.16,0.041-0.279,0.141-0.421
		c0.061-0.141,0.1-0.239,0.18-0.358c0.1-0.16,0.24-0.301,0.361-0.42l-0.301-0.861c0-0.059-0.021-0.08-0.062-0.16v-0.02
		c0-0.301-0.139-0.6-0.159-0.92c0.021-0.16,0-0.319,0.021-0.5c0-0.08,0-0.16,0.02-0.22c0.062-0.061,0.062-0.12,0.08-0.16v-0.02
		V7.782c0.021,0,0.021,0,0,0c0.021,0,0.021,0,0.021-0.02c0-0.021,0.02-0.04,0-0.061c0.041-0.1,0.061-0.16,0.1-0.26
		c0.02-0.021,0.02-0.04,0.02-0.04c0.021-0.021,0.021-0.04,0-0.061l0.021-0.02l0.02-0.021l0.039-0.06
		c0.103-0.14,0.183-0.24,0.301-0.38c0.142-0.24,0.4-0.44,0.642-0.62c0.199-0.221,0.459-0.38,0.722-0.521
		c0.118-0.08,0.278-0.14,0.397-0.2h0.021l0.021-0.02l0.039-0.021c0.041-0.02,0.08-0.02,0.103-0.02c0.059-0.04,0.139-0.061,0.18-0.08
		c0.16-0.061,0.279-0.12,0.42-0.12c0.119-0.04,0.279-0.08,0.42-0.1c0.08,0,0.141,0,0.199,0c0.102,0,0.182,0,0.262,0.02
		c0.078,0,0.139,0.04,0.219,0.08c0.041,0.021,0.08,0.06,0.1,0.12c0.062,0.06,0.103,0.08,0.142,0.14c0,0.061-0.021,0.12,0,0.16
		c0,0.08-0.021,0.141-0.062,0.16c0,0.021,0,0.021,0.021,0.04L54.68,5.902v0.02v0.02v0.04c0,0.04-0.059,0.101-0.08,0.141
		c-0.039,0.08-0.059,0.16-0.1,0.24c-0.039,0.06-0.119,0.16-0.219,0.239c-0.08,0.04-0.16,0.101-0.301,0.12
		c-0.021,0.021-0.041,0.021-0.062,0.021s-0.039,0-0.039,0c0,0.02,0,0.02-0.021,0.02h-0.021c-0.039-0.02-0.1-0.02-0.18-0.04
		c-0.039-0.02-0.101-0.06-0.181-0.1c-0.041-0.04-0.041-0.1-0.061-0.16c0,0.021-0.02,0.04-0.02,0.04c-0.121,0.1-0.201,0.16-0.26,0.24
		c-0.181,0.2-0.281,0.38-0.4,0.6c0,0.061,0,0.16,0,0.261c-0.021,0.1,0.02,0.18,0.039,0.26v0.04v-0.04
		c-0.039,0.1-0.021,0.14,0.021,0.2c0,0.02,0.021,0.04,0.021,0.04c0,0.02,0,0.04,0,0.06c0,0.021,0,0.04,0,0.101
		c0.061,0.12,0.119,0.239,0.141,0.38c0.059,0.2,0.1,0.4,0.158,0.56c0.041-0.041,0.102-0.061,0.141-0.08c0.381-0.2,0.641-0.36,1-0.52
		c0.16-0.08,0.201-0.101,0.32-0.16c0.1-0.04-0.02,0.021,0,0.021c0.18-0.101,0.4-0.2,0.439-0.24c-0.101,0.06-0.101,0.06-0.199,0.12
		c-0.062,0.04,0.16-0.08,0.18-0.08c-0.08,0.04-0.139,0.08-0.24,0.12c0.18-0.101,0.201-0.101,0.461-0.221c0.02,0-0.02,0-0.08,0.021
		c0.021-0.021,0.1-0.04,0.199-0.08c-0.1,0.06,0.021,0,0.08-0.04c0,0-0.039,0.04-0.1,0.06c0,0,0.02-0.02,0.041-0.02
		c0-0.021,0.02-0.021,0.059-0.04c0,0,0.021-0.021,0.041-0.021c0.02-0.02,0.02-0.02,0.02-0.02c0.101-0.04-0.08,0.06-0.16,0.1
		c0.062-0.04,0.16-0.08,0.201-0.1c0.021,0,0.021,0,0.021,0C55.84,7.902,56,7.803,56,7.803v0.02l-0.08,0.18
		c0,0-2.061,1.021-2.82,1.681c0.041,0.319-0.02,0.959-0.299,1.76c-0.201,0.461-0.441,0.938-0.721,1.281
		c0-0.021,0.02-0.041,0.08-0.062c0.039-0.061,0.08-0.16,0.16-0.24c0.039-0.118,0.16-0.239,0.24-0.358
		c0.039-0.121,0.1-0.262,0.119-0.381c0.02-0.021,0.061-0.101,0.079-0.199c0.08-0.08,0.121-0.2,0.142-0.301
		c0.039-0.121,0.061-0.24,0.08-0.319c0.08-0.119,0.08-0.181,0.08-0.24c0,0.041,0.02,0.08-0.041,0.141c0,0.08,0,0.141-0.06,0.26
		c0.06-0.08,0.06-0.16,0.119-0.279c-0.021-0.08,0.021-0.16,0.021-0.221c0.02-0.041,0-0.221,0.041-0.34c0.039-0.16,0-0.301,0-0.381
		c0.02-0.039,0.02-0.059,0.02-0.08c0.119-0.139,0.24-0.24,0.4-0.34c0.198-0.1,0.34-0.221,0.479-0.299
		c-0.021,0.02-0.08,0.059-0.142,0.079c-0.041,0.041-0.1,0.08-0.1,0.102c0.08-0.061,0.199-0.121,0.34-0.201
		c0.101-0.1,0.219-0.14,0.26-0.18c-0.1,0.06-0.18,0.12-0.26,0.18c0.08-0.06,0.24-0.16,0.379-0.26c0.183-0.08,0.381-0.2,0.48-0.24
		c-0.299,0.16-0.58,0.32-0.879,0.541c-0.182,0.08-0.32,0.199-0.5,0.32c-0.16,0.08-0.281,0.16-0.381,0.299c0-0.039,0-0.059,0-0.059
		s0,0.02-0.021,0.02v-0.02c0,0,0,0.02-0.021,0.059c0-0.039,0-0.039,0-0.059c-0.021,0.059-0.021,0.08-0.039,0.1c0,0,0.02,0,0.02-0.02
		c0,0.02-0.02,0.039-0.02,0.039s0,0,0.039-0.02c-0.039,0.02-0.039,0.02-0.039,0.039c0.02-0.02,0.02-0.02,0.061-0.039
		c0.021,0.219-0.041,0.48-0.021,0.719c-0.021,0.24-0.119,0.521-0.22,0.781c0,0.061,0,0.119-0.041,0.199
		c-0.059,0.041-0.08,0.121-0.1,0.201c-0.039,0.1-0.1,0.239-0.141,0.358c-0.119,0.24-0.26,0.461-0.42,0.701
		c0.021-0.041,0.08-0.08,0.141-0.183c0.061-0.08,0.119-0.18,0.18-0.278c0.08-0.142,0.142-0.261,0.18-0.399
		c0.041-0.142,0.103-0.261,0.183-0.4c0.021-0.119,0.119-0.379,0.181-0.68c0.059-0.279,0.08-0.66,0.1-1.021
		C53.24,9.744,53.24,9.744,53.24,9.744z M50.779,12.423c0-0.041,0-0.062-0.021-0.08c0-0.02,0-0.039,0-0.061
		C50.76,12.324,50.76,12.382,50.779,12.423z M50.779,12.263c0,0,0-0.039,0-0.08c0.02-0.02,0.02-0.061,0.02-0.08
		c0,0.02,0,0.061-0.02,0.08C50.779,12.203,50.779,12.263,50.779,12.263z M50.92,12.564c0-0.121,0-0.26,0.039-0.381
		c0.021-0.02-0.02,0-0.02,0s0.041-0.02,0.041-0.039c-0.021,0.02-0.041,0.039-0.041,0.08c0-0.041,0.02-0.061,0.02-0.08
		c0-0.021,0-0.061,0-0.08c0,0-0.02,0.02-0.02,0.039c0,0-0.021,0.02-0.021,0.041c-0.021,0-0.021-0.021-0.041-0.021c0,0,0,0,0-0.02
		s0.021-0.039,0.021-0.061c0-0.021,0.021-0.06,0.021-0.08c0.021-0.039,0.021-0.101,0.039-0.101C50.98,11.824,51,11.802,51,11.763
		c0-0.02,0-0.02,0-0.041c0-0.02,0-0.039,0.02-0.039c0.041-0.08,0.08-0.18,0.181-0.24c0-0.02,0-0.02,0-0.039
		c0-0.08,0-0.141-0.021-0.221c-0.08,0.08-0.119,0.141-0.18,0.221c-0.02,0.02-0.02,0.02-0.02,0.02s0,0,0-0.02
		c-0.021,0.039-0.062,0.059-0.103,0.08c0,0.02-0.021,0.02-0.021,0.059c0,0.062,0,0.103-0.02,0.142c0,0,0,0.021,0,0.039
		c0,0.021,0.02,0.021,0.02,0.041s0,0.021,0,0.039c0,0.021-0.02,0.04-0.02,0.062v0.04c0,0.039,0.02,0.08,0.02,0.101
		c0,0.02,0,0.02,0,0.039c0,0,0,0,0,0.021c0,0,0,0.021,0.021,0.039c0,0,0,0,0,0.021s0,0.041-0.021,0.061c0,0.08,0,0.1,0,0.141
		c0,0.059,0,0.1,0,0.119s0,0.02,0,0.041c0,0.02,0,0,0,0c0,0.02,0,0.02,0,0.02C50.879,12.523,50.92,12.542,50.92,12.564z
		 M51.16,11.904c-0.021,0-0.021,0.08-0.021,0.139c0,0.021,0,0.021,0,0.041c0,0.039-0.02,0.062-0.02,0.08
		c-0.02-0.02-0.02-0.041-0.02-0.061c0,0.02,0,0.041,0,0.061c-0.039,0.021-0.039,0.062-0.039,0.101l-0.041,0.021
		c0,0.021,0,0.041,0,0.041C51,12.343,51,12.363,51,12.363c0,0.02-0.02,0.02-0.02,0.041L51,12.363c-0.02,0.02-0.041,0.08-0.041,0.08
		s0-0.02,0-0.039c0,0.02,0,0.039-0.02,0.039c0,0.02,0,0.041,0,0.061c0-0.061,0.02-0.18,0.041-0.278
		c0.02-0.041,0.039-0.062,0.039-0.103c0-0.02,0-0.039,0-0.059c0-0.021,0-0.061,0-0.08c0-0.021,0-0.061,0-0.08
		c-0.021,0-0.021,0.02-0.021,0.059c0,0.021,0.021,0.062,0.021,0.103c-0.039,0-0.021,0.08-0.062,0.199c0,0-0.021,0.041-0.021,0.062
		c0,0.02,0,0.02,0,0.039v0.02c0,0.021-0.02,0.021-0.02,0.041c0,0.02,0,0.061,0,0.08c0,0.019,0,0.039,0,0.039
		c0,0.021,0,0.021,0,0.021c0.02,0.021,0.039,0.021,0.039,0.039C51.08,12.382,51.139,12.123,51.16,11.904z M52.561,5.782
		c0.039-0.021,0.08-0.061,0.119-0.101H52.7h0.021c0.021-0.02,0.021-0.02,0.039-0.02c0.02-0.021,0.02-0.021,0.02-0.021
		c0.021,0,0.021,0,0.041,0h-0.041c-0.02,0.021-0.038,0.021-0.059,0.021c0,0.02-0.021,0.02-0.021,0.02H52.68
		c0,0-0.02,0.04-0.039,0.04c-0.061,0.04-0.141,0.101-0.262,0.12C52.359,5.842,52.48,5.822,52.561,5.782z M52.699,7.942
		c-0.02-0.021-0.02-0.021-0.02-0.021v-0.02c0-0.04,0-0.04,0-0.06c0,0.02,0,0.06,0,0.06v0.02c0-0.02,0-0.02,0-0.02v0.02
		C52.68,7.922,52.68,7.922,52.699,7.942z M52.68,7.902c0,0,0,0,0,0.02V7.902z M52.699,7.942c-0.02,0.06,0,0.16,0.021,0.22
		c0.038,0.12,0.079,0.221,0.1,0.301c0.039,0.18,0.08,0.359,0.1,0.54c0-0.12-0.08-0.32-0.1-0.521c-0.021-0.1-0.062-0.2-0.1-0.32
		C52.68,8.082,52.68,8.002,52.699,7.942z M53.16,9.664c0,0.02,0,0.02,0,0.059l-0.02,0.021C53.141,9.722,53.141,9.683,53.16,9.664z
		 M53.18,9.263c0.201-0.121,0.5-0.321,0.66-0.401c-0.199,0.101-0.359,0.2-0.52,0.28C53.26,9.183,53.221,9.222,53.18,9.263z
		 M53.18,9.744c0.021,0,0.021,0,0.021-0.021l0.021,0.021C53.199,9.744,53.199,9.744,53.18,9.744z M53.199,9.763
		c0,0,0-0.02,0.021-0.02C53.199,9.763,53.199,9.763,53.199,9.763z M53.221,9.683c0,0.039,0.021,0.039,0.021,0.039
		c-0.021,0.021-0.021,0.021-0.021,0.021C53.221,9.722,53.221,9.722,53.221,9.683z M53.221,9.744c0,0,0,0,0.021,0c0,0,0,0,0,0.02
		h-0.021C53.221,9.763,53.221,9.763,53.221,9.744z M56.021,7.822C56,7.902,55.96,7.962,55.96,8.002v0.021h-0.021
		c-0.44,0.28-0.899,0.54-1.399,0.82c-0.121,0.08-0.24,0.16-0.34,0.24c-0.142,0.059-0.24,0.139-0.343,0.219
		c-0.159,0.08-0.278,0.16-0.397,0.24c-0.06,0.061-0.14,0.122-0.22,0.202c0.141-0.16,0.32-0.281,0.561-0.381
		c0.18-0.18,0.4-0.3,0.619-0.46c0.461-0.26,0.861-0.5,1.201-0.7c0.119-0.06,0.219-0.12,0.32-0.18l0.02-0.021
		C56,7.942,56,7.862,56.021,7.822z M53.24,9.722v0.021C53.24,9.744,53.24,9.744,53.24,9.722z"/>
</g>
</svg>
